<svg width="432" height="92" viewBox="0 0 432 92" fill="none" xmlns="http://www.w3.org/2000/svg">
<path d="M4.056 15.1925C3.38 15.1925 2.82533 15.0928 2.392 14.8935C1.96733 14.6942 1.63367 14.3995 1.391 14.0095C1.14833 13.6195 0.979333 13.1385 0.884 12.5665C0.797333 11.9945 0.754 11.3358 0.754 10.5905C0.754 9.82783 0.797333 9.15617 0.884 8.5755C0.979333 7.99483 1.14833 7.5095 1.391 7.1195C1.63367 6.7295 1.96733 6.43483 2.392 6.2355C2.82533 6.03617 3.38 5.9365 4.056 5.9365C4.368 5.9365 4.67567 5.95383 4.979 5.9885C5.291 6.0145 5.58133 6.0535 5.85 6.1055C6.11867 6.14883 6.34833 6.19217 6.539 6.2355L6.5 7.1065C6.30933 7.07183 6.07533 7.03717 5.798 7.0025C5.52067 6.96783 5.239 6.9375 4.953 6.9115C4.667 6.8855 4.407 6.8725 4.173 6.8725C3.679 6.8725 3.276 6.94617 2.964 7.0935C2.66067 7.24083 2.42667 7.4705 2.262 7.7825C2.09733 8.08583 1.98467 8.4715 1.924 8.9395C1.86333 9.39883 1.833 9.94917 1.833 10.5905C1.833 11.2145 1.86333 11.7605 1.924 12.2285C1.98467 12.6878 2.093 13.0692 2.249 13.3725C2.41367 13.6672 2.652 13.8882 2.964 14.0355C3.276 14.1828 3.68333 14.2565 4.186 14.2565C4.55 14.2565 4.94867 14.2348 5.382 14.1915C5.824 14.1395 6.19667 14.0875 6.5 14.0355L6.539 14.9195C6.331 14.9628 6.08833 15.0062 5.811 15.0495C5.53367 15.0928 5.24333 15.1275 4.94 15.1535C4.63667 15.1795 4.342 15.1925 4.056 15.1925ZM10.5033 15.1925C9.77529 15.1925 9.20762 15.0668 8.80029 14.8155C8.40162 14.5642 8.11996 14.1828 7.95529 13.6715C7.79929 13.1602 7.72129 12.5145 7.72129 11.7345C7.72129 10.9892 7.80796 10.3738 7.98129 9.8885C8.16329 9.40317 8.45796 9.03917 8.86529 8.7965C9.27262 8.55383 9.81862 8.4325 10.5033 8.4325C11.1966 8.4325 11.747 8.55383 12.1543 8.7965C12.5616 9.03917 12.852 9.40317 13.0253 9.8885C13.2073 10.3738 13.2983 10.9892 13.2983 11.7345C13.2983 12.5145 13.216 13.1602 13.0513 13.6715C12.8953 14.1828 12.6136 14.5642 12.2063 14.8155C11.8076 15.0668 11.24 15.1925 10.5033 15.1925ZM10.5033 14.3215C11.006 14.3215 11.383 14.2348 11.6343 14.0615C11.8856 13.8795 12.0503 13.5978 12.1283 13.2165C12.215 12.8352 12.2583 12.3412 12.2583 11.7345C12.2583 11.1365 12.2063 10.6598 12.1023 10.3045C11.9983 9.94917 11.8206 9.6935 11.5693 9.5375C11.318 9.3815 10.9626 9.3035 10.5033 9.3035C10.0526 9.3035 9.69729 9.3815 9.43729 9.5375C9.18596 9.6935 9.00829 9.94917 8.90429 10.3045C8.80029 10.6598 8.74829 11.1365 8.74829 11.7345C8.74829 12.3412 8.78729 12.8352 8.86529 13.2165C8.95196 13.5978 9.12096 13.8795 9.37229 14.0615C9.62362 14.2348 10.0006 14.3215 10.5033 14.3215ZM14.8881 17.9355V8.5625H15.8891V9.0305C16.0278 8.94383 16.2011 8.85717 16.4091 8.7705C16.6258 8.67517 16.8555 8.59717 17.0981 8.5365C17.3408 8.46717 17.5748 8.4325 17.8001 8.4325C18.6235 8.4325 19.2258 8.69683 19.6071 9.2255C19.9885 9.7455 20.1791 10.5818 20.1791 11.7345C20.1791 12.5838 20.0795 13.2642 19.8801 13.7755C19.6895 14.2782 19.3818 14.6422 18.9571 14.8675C18.5411 15.0842 17.9995 15.1925 17.3321 15.1925C17.0635 15.1925 16.7905 15.1752 16.5131 15.1405C16.2445 15.1058 16.0365 15.0755 15.8891 15.0495V17.9355H14.8881ZM17.2801 14.3085C17.7481 14.3085 18.1165 14.2218 18.3851 14.0485C18.6625 13.8752 18.8575 13.6022 18.9701 13.2295C19.0828 12.8482 19.1391 12.3498 19.1391 11.7345C19.1391 10.8592 19.0091 10.2438 18.7491 9.8885C18.4891 9.5245 18.1251 9.3425 17.6571 9.3425C17.4491 9.3425 17.2325 9.3685 17.0071 9.4205C16.7905 9.4725 16.5825 9.5375 16.3831 9.6155C16.1838 9.68483 16.0191 9.7585 15.8891 9.8365V14.1785C16.0278 14.1958 16.2315 14.2218 16.5001 14.2565C16.7688 14.2912 17.0288 14.3085 17.2801 14.3085ZM23.1083 17.9355L23.9533 15.0625H22.9783L21.1453 8.5625H22.1593L23.7453 14.1915H24.1873L25.7863 8.5625H26.8003L24.1223 17.9355H23.1083ZM28.0532 15.0625V8.5625H29.0542V9.4335C29.2189 9.32083 29.4269 9.1995 29.6782 9.0695C29.9295 8.93083 30.2069 8.80083 30.5102 8.6795C30.8135 8.55817 31.1169 8.4715 31.4202 8.4195V9.4465C31.1255 9.50717 30.8265 9.5895 30.5232 9.6935C30.2199 9.78883 29.9382 9.89283 29.6782 10.0055C29.4269 10.1182 29.2189 10.2178 29.0542 10.3045V15.0625H28.0532ZM32.56 15.0625V8.5625H33.561V15.0625H32.56ZM32.56 7.1325V5.9625H33.561V7.1325H32.56ZM37.9382 18.1175C37.2622 18.1175 36.7162 18.0568 36.3002 17.9355C35.8928 17.8228 35.5938 17.6235 35.4032 17.3375C35.2212 17.0515 35.1302 16.6615 35.1302 16.1675C35.1302 15.9162 35.1692 15.6995 35.2472 15.5175C35.3252 15.3442 35.4378 15.1838 35.5852 15.0365C35.7412 14.8805 35.9318 14.7202 36.1572 14.5555C36.0445 14.4688 35.9535 14.3475 35.8842 14.1915C35.8235 14.0268 35.7932 13.8448 35.7932 13.6455C35.7932 13.5502 35.8408 13.3985 35.9362 13.1905C36.0402 12.9738 36.1398 12.7832 36.2352 12.6185C36.0532 12.5318 35.8842 12.4148 35.7282 12.2675C35.5808 12.1115 35.4595 11.9035 35.3642 11.6435C35.2688 11.3835 35.2212 11.0542 35.2212 10.6555C35.2212 9.85817 35.4465 9.2905 35.8972 8.9525C36.3478 8.60583 36.9328 8.4325 37.6522 8.4325C37.8862 8.4325 38.1332 8.44983 38.3932 8.4845C38.6532 8.51917 38.8568 8.55817 39.0042 8.6015L40.9412 8.5495V9.4075L39.7192 9.3815C39.8405 9.50283 39.9402 9.66317 40.0182 9.8625C40.1048 10.0618 40.1482 10.3262 40.1482 10.6555C40.1482 11.2188 40.0528 11.6608 39.8622 11.9815C39.6715 12.3022 39.3898 12.5275 39.0172 12.6575C38.6445 12.7875 38.1765 12.8525 37.6132 12.8525C37.5525 12.8525 37.4485 12.8482 37.3012 12.8395C37.1625 12.8222 37.0585 12.8092 36.9892 12.8005C36.9372 12.9218 36.8852 13.0605 36.8332 13.2165C36.7812 13.3725 36.7552 13.4808 36.7552 13.5415C36.7552 13.7062 36.7855 13.8318 36.8462 13.9185C36.9068 14.0052 37.0455 14.0615 37.2622 14.0875C37.4875 14.1135 37.8385 14.1265 38.3152 14.1265C38.9392 14.1265 39.4375 14.1785 39.8102 14.2825C40.1828 14.3865 40.4472 14.5772 40.6032 14.8545C40.7678 15.1232 40.8502 15.5175 40.8502 16.0375C40.8502 16.7742 40.5945 17.3028 40.0832 17.6235C39.5718 17.9528 38.8568 18.1175 37.9382 18.1175ZM37.9512 17.2595C38.5925 17.2595 39.0648 17.1685 39.3682 16.9865C39.6715 16.8045 39.8232 16.5055 39.8232 16.0895C39.8232 15.7688 39.7712 15.5305 39.6672 15.3745C39.5718 15.2272 39.4072 15.1275 39.1732 15.0755C38.9392 15.0322 38.6272 15.0105 38.2372 15.0105C38.1592 15.0105 38.0508 15.0105 37.9122 15.0105C37.7735 15.0018 37.6305 14.9975 37.4832 14.9975C37.3358 14.9888 37.2015 14.9802 37.0802 14.9715C36.9675 14.9628 36.8895 14.9585 36.8462 14.9585C36.5775 15.1492 36.3912 15.3182 36.2872 15.4655C36.1832 15.6215 36.1312 15.8252 36.1312 16.0765C36.1312 16.3625 36.1832 16.5922 36.2872 16.7655C36.3912 16.9388 36.5732 17.0645 36.8332 17.1425C37.1018 17.2205 37.4745 17.2595 37.9512 17.2595ZM37.6522 12.0465C38.1895 12.0465 38.5708 11.9425 38.7962 11.7345C39.0215 11.5178 39.1342 11.1582 39.1342 10.6555C39.1342 10.1528 39.0215 9.79317 38.7962 9.5765C38.5708 9.35983 38.1895 9.2515 37.6522 9.2515C37.1495 9.2515 36.7855 9.35983 36.5602 9.5765C36.3435 9.79317 36.2352 10.1528 36.2352 10.6555C36.2352 11.1582 36.3435 11.5178 36.5602 11.7345C36.7855 11.9425 37.1495 12.0465 37.6522 12.0465ZM42.1196 15.0625V5.7415H43.1206V8.9135C43.3459 8.8095 43.6449 8.7055 44.0176 8.6015C44.3989 8.48883 44.7629 8.4325 45.1096 8.4325C45.7076 8.4325 46.1626 8.54083 46.4746 8.7575C46.7953 8.9655 47.0119 9.3035 47.1246 9.7715C47.2459 10.2395 47.3066 10.8548 47.3066 11.6175V15.0625H46.2926V11.6565C46.2926 11.0932 46.2579 10.6425 46.1886 10.3045C46.1279 9.9665 46.0023 9.72383 45.8116 9.5765C45.6209 9.4205 45.3263 9.3425 44.9276 9.3425C44.5983 9.3425 44.2646 9.38583 43.9266 9.4725C43.5886 9.55917 43.3199 9.6415 43.1206 9.7195V15.0625H42.1196ZM51.2467 15.2055C50.796 15.2055 50.4364 15.1362 50.1677 14.9975C49.9077 14.8588 49.7214 14.6205 49.6087 14.2825C49.496 13.9358 49.4397 13.4505 49.4397 12.8265V9.4335H48.5167V8.5625H49.4397V6.5735H50.4407V8.5625H52.4817V9.4335H50.4407V12.5275C50.4407 12.9868 50.458 13.3465 50.4927 13.6065C50.536 13.8578 50.6227 14.0355 50.7527 14.1395C50.8827 14.2435 51.0864 14.2955 51.3637 14.2955C51.4504 14.2955 51.563 14.2912 51.7017 14.2825C51.8404 14.2738 51.979 14.2652 52.1177 14.2565C52.265 14.2392 52.395 14.2262 52.5077 14.2175L52.5727 15.0625C52.382 15.0885 52.1567 15.1188 51.8967 15.1535C51.6367 15.1882 51.42 15.2055 51.2467 15.2055ZM59.7788 12.9695C59.1201 12.9695 58.5308 12.8135 58.0108 12.5015C57.4994 12.1808 57.0964 11.7518 56.8018 11.2145C56.5071 10.6772 56.3598 10.0792 56.3598 9.4205C56.3598 8.75317 56.5071 8.15083 56.8018 7.6135C57.0964 7.07617 57.5038 6.6515 58.0238 6.3395C58.5438 6.01883 59.1331 5.8585 59.7918 5.8585C60.4678 5.8585 61.0614 6.01883 61.5728 6.3395C62.0928 6.66017 62.4958 7.0935 62.7818 7.6395C63.0764 8.17683 63.2238 8.7705 63.2238 9.4205C63.2238 10.0792 63.0764 10.6772 62.7818 11.2145C62.4958 11.7518 62.0928 12.1808 61.5728 12.5015C61.0614 12.8135 60.4634 12.9695 59.7788 12.9695ZM59.8308 11.4745C59.4494 11.4745 59.1461 11.4008 58.9208 11.2535C58.7041 11.1062 58.5481 10.8808 58.4528 10.5775C58.3574 10.2655 58.3098 9.87117 58.3098 9.3945C58.3098 8.94383 58.3574 8.57117 58.4528 8.2765C58.5481 7.97317 58.7084 7.74783 58.9338 7.6005C59.1591 7.4445 59.4668 7.3665 59.8568 7.3665C60.0561 7.3665 60.2468 7.38383 60.4288 7.4185C60.6194 7.4445 60.7581 7.47483 60.8448 7.5095L60.8058 8.2245C60.6931 8.20717 60.5458 8.18983 60.3638 8.1725C60.1904 8.1465 60.0301 8.1335 59.8828 8.1335C59.6661 8.1335 59.5014 8.18117 59.3888 8.2765C59.2761 8.36317 59.2024 8.50183 59.1678 8.6925C59.1331 8.8745 59.1158 9.1085 59.1158 9.3945C59.1158 9.81917 59.1678 10.1442 59.2718 10.3695C59.3758 10.5948 59.5794 10.7075 59.8828 10.7075C60.0301 10.7075 60.1904 10.6988 60.3638 10.6815C60.5458 10.6555 60.6931 10.6338 60.8058 10.6165L60.8448 11.3185C60.7494 11.3532 60.6064 11.3878 60.4158 11.4225C60.2251 11.4572 60.0301 11.4745 59.8308 11.4745ZM59.7788 12.3975C60.3334 12.3975 60.8231 12.2632 61.2478 11.9945C61.6811 11.7258 62.0191 11.3662 62.2618 10.9155C62.5131 10.4648 62.6388 9.9665 62.6388 9.4205C62.6388 8.8745 62.5131 8.37617 62.2618 7.9255C62.0191 7.46617 61.6811 7.10217 61.2478 6.8335C60.8144 6.56483 60.3248 6.4305 59.7788 6.4305C59.2328 6.4305 58.7431 6.56483 58.3098 6.8335C57.8851 7.10217 57.5471 7.46617 57.2958 7.9255C57.0531 8.37617 56.9318 8.8745 56.9318 9.4205C56.9318 9.9665 57.0531 10.4648 57.2958 10.9155C57.5471 11.3662 57.8851 11.7258 58.3098 11.9945C58.7431 12.2632 59.2328 12.3975 59.7788 12.3975ZM67.7251 15.0625V14.1785L70.1951 11.5915C70.5505 11.2188 70.8581 10.8852 71.1181 10.5905C71.3781 10.2872 71.5775 9.9925 71.7161 9.7065C71.8548 9.41183 71.9241 9.09983 71.9241 8.7705C71.9241 8.20717 71.7681 7.8215 71.4561 7.6135C71.1528 7.39683 70.6935 7.2885 70.0781 7.2885C69.8528 7.2885 69.6015 7.30583 69.3241 7.3405C69.0468 7.3665 68.7781 7.40117 68.5181 7.4445C68.2668 7.47917 68.0501 7.51817 67.8681 7.5615L67.7901 6.7035C67.9721 6.6515 68.1975 6.5995 68.4661 6.5475C68.7348 6.4955 69.0251 6.45217 69.3371 6.4175C69.6578 6.37417 69.9698 6.3525 70.2731 6.3525C71.1831 6.3525 71.8635 6.5345 72.3141 6.8985C72.7735 7.2625 73.0031 7.8475 73.0031 8.6535C73.0031 9.07817 72.9338 9.4595 72.7951 9.7975C72.6651 10.1355 72.4658 10.4692 72.1971 10.7985C71.9371 11.1192 71.6035 11.4788 71.1961 11.8775L68.9471 14.1525H73.2111V15.0625H67.7251ZM77.7425 15.1925C77.2485 15.1925 76.8065 15.1232 76.4165 14.9845C76.0352 14.8458 75.7059 14.6162 75.4285 14.2955C75.1599 13.9662 74.9519 13.5242 74.8045 12.9695C74.6659 12.4148 74.5965 11.7258 74.5965 10.9025C74.5965 10.0272 74.6659 9.29483 74.8045 8.7055C74.9432 8.11617 75.1469 7.64817 75.4155 7.3015C75.6929 6.95483 76.0222 6.70783 76.4035 6.5605C76.7935 6.41317 77.2355 6.3395 77.7295 6.3395C78.2409 6.3395 78.6915 6.41317 79.0815 6.5605C79.4715 6.70783 79.7965 6.95483 80.0565 7.3015C80.3252 7.64817 80.5289 8.11617 80.6675 8.7055C80.8062 9.28617 80.8755 10.0185 80.8755 10.9025C80.8755 11.9945 80.7499 12.8525 80.4985 13.4765C80.2472 14.1005 79.8875 14.5425 79.4195 14.8025C78.9602 15.0625 78.4012 15.1925 77.7425 15.1925ZM77.7425 14.2695C78.0805 14.2695 78.3752 14.2175 78.6265 14.1135C78.8865 14.0095 79.1032 13.8318 79.2765 13.5805C79.4499 13.3292 79.5799 12.9868 79.6665 12.5535C79.7532 12.1115 79.7965 11.5612 79.7965 10.9025C79.7965 10.1832 79.7532 9.5895 79.6665 9.1215C79.5885 8.6535 79.4629 8.28517 79.2895 8.0165C79.1249 7.73917 78.9125 7.54417 78.6525 7.4315C78.4012 7.31883 78.0979 7.2625 77.7425 7.2625C77.3959 7.2625 77.0925 7.31883 76.8325 7.4315C76.5725 7.54417 76.3559 7.73483 76.1825 8.0035C76.0179 8.27217 75.8922 8.64483 75.8055 9.1215C75.7189 9.5895 75.6755 10.1875 75.6755 10.9155C75.6755 11.5742 75.7189 12.1245 75.8055 12.5665C75.9009 12.9998 76.0352 13.3422 76.2085 13.5935C76.3905 13.8362 76.6072 14.0095 76.8585 14.1135C77.1185 14.2175 77.4132 14.2695 77.7425 14.2695ZM82.274 15.0625V14.1785L84.744 11.5915C85.0993 11.2188 85.407 10.8852 85.667 10.5905C85.927 10.2872 86.1263 9.9925 86.265 9.7065C86.4036 9.41183 86.473 9.09983 86.473 8.7705C86.473 8.20717 86.317 7.8215 86.005 7.6135C85.7016 7.39683 85.2423 7.2885 84.627 7.2885C84.4016 7.2885 84.1503 7.30583 83.873 7.3405C83.5956 7.3665 83.327 7.40117 83.067 7.4445C82.8156 7.47917 82.599 7.51817 82.417 7.5615L82.339 6.7035C82.521 6.6515 82.7463 6.5995 83.015 6.5475C83.2836 6.4955 83.574 6.45217 83.886 6.4175C84.2066 6.37417 84.5186 6.3525 84.822 6.3525C85.732 6.3525 86.4123 6.5345 86.863 6.8985C87.3223 7.2625 87.552 7.8475 87.552 8.6535C87.552 9.07817 87.4826 9.4595 87.344 9.7975C87.214 10.1355 87.0146 10.4692 86.746 10.7985C86.486 11.1192 86.1523 11.4788 85.745 11.8775L83.496 14.1525H87.76V15.0625H82.274ZM92.2654 15.1925C91.936 15.1925 91.5937 15.1708 91.2384 15.1275C90.883 15.0928 90.5494 15.0495 90.2374 14.9975C89.9254 14.9455 89.6654 14.8935 89.4574 14.8415L89.5484 13.9965C89.7477 14.0312 89.9947 14.0702 90.2894 14.1135C90.584 14.1568 90.896 14.1958 91.2254 14.2305C91.5547 14.2565 91.8667 14.2695 92.1614 14.2695C92.7854 14.2695 93.2447 14.1352 93.5394 13.8665C93.8427 13.5892 93.9944 13.1818 93.9944 12.6445C93.9944 12.2545 93.9164 11.9468 93.7604 11.7215C93.6044 11.4962 93.392 11.3315 93.1234 11.2275C92.8634 11.1235 92.573 11.0672 92.2524 11.0585H90.5234V10.1615H92.2524C92.469 10.1615 92.6944 10.1008 92.9284 9.9795C93.171 9.85817 93.3747 9.68483 93.5394 9.4595C93.704 9.2255 93.7864 8.94817 93.7864 8.6275C93.7864 8.14217 93.652 7.7955 93.3834 7.5875C93.1234 7.37083 92.6814 7.2625 92.0574 7.2625C91.7714 7.2625 91.4767 7.27983 91.1734 7.3145C90.8787 7.3405 90.597 7.37517 90.3284 7.4185C90.0684 7.45317 89.8517 7.49217 89.6784 7.5355L89.5874 6.7035C89.7607 6.6515 89.9817 6.5995 90.2504 6.5475C90.5277 6.48683 90.8267 6.43917 91.1474 6.4045C91.468 6.36117 91.7844 6.3395 92.0964 6.3395C92.781 6.3395 93.3227 6.42183 93.7214 6.5865C94.1287 6.7425 94.419 6.98517 94.5924 7.3145C94.7744 7.64383 94.8654 8.06417 94.8654 8.5755C94.8654 8.90483 94.8134 9.1865 94.7094 9.4205C94.6054 9.64583 94.4797 9.8365 94.3324 9.9925C94.185 10.1398 94.042 10.2568 93.9034 10.3435C93.7647 10.4302 93.6607 10.4952 93.5914 10.5385C93.886 10.6425 94.1417 10.7682 94.3584 10.9155C94.5837 11.0542 94.757 11.2578 94.8784 11.5265C95.0084 11.7865 95.0734 12.1462 95.0734 12.6055C95.0734 13.1862 94.9737 13.6672 94.7744 14.0485C94.5837 14.4298 94.2804 14.7158 93.8644 14.9065C93.4484 15.0972 92.9154 15.1925 92.2654 15.1925ZM100.979 15.0625L99.1722 6.0795H100.251L101.759 14.1525H102.123L103.943 6.1445H105.165L106.985 14.1525H107.349L108.857 6.0795H109.936L108.116 15.0625H106.244L104.463 6.9765H104.645L102.864 15.0625H100.979ZM113.754 15.1925C113.026 15.1925 112.459 15.0668 112.051 14.8155C111.653 14.5642 111.371 14.1828 111.206 13.6715C111.05 13.1602 110.972 12.5145 110.972 11.7345C110.972 10.9892 111.059 10.3738 111.232 9.8885C111.414 9.40317 111.709 9.03917 112.116 8.7965C112.524 8.55383 113.07 8.4325 113.754 8.4325C114.448 8.4325 114.998 8.55383 115.405 8.7965C115.813 9.03917 116.103 9.40317 116.276 9.8885C116.458 10.3738 116.549 10.9892 116.549 11.7345C116.549 12.5145 116.467 13.1602 116.302 13.6715C116.146 14.1828 115.865 14.5642 115.457 14.8155C115.059 15.0668 114.491 15.1925 113.754 15.1925ZM113.754 14.3215C114.257 14.3215 114.634 14.2348 114.885 14.0615C115.137 13.8795 115.301 13.5978 115.379 13.2165C115.466 12.8352 115.509 12.3412 115.509 11.7345C115.509 11.1365 115.457 10.6598 115.353 10.3045C115.249 9.94917 115.072 9.6935 114.82 9.5375C114.569 9.3815 114.214 9.3035 113.754 9.3035C113.304 9.3035 112.948 9.3815 112.688 9.5375C112.437 9.6935 112.259 9.94917 112.155 10.3045C112.051 10.6598 111.999 11.1365 111.999 11.7345C111.999 12.3412 112.038 12.8352 112.116 13.2165C112.203 13.5978 112.372 13.8795 112.623 14.0615C112.875 14.2348 113.252 14.3215 113.754 14.3215ZM118.139 15.0625V8.5625H119.14V9.4335C119.305 9.32083 119.513 9.1995 119.764 9.0695C120.015 8.93083 120.293 8.80083 120.596 8.6795C120.899 8.55817 121.203 8.4715 121.506 8.4195V9.4465C121.211 9.50717 120.912 9.5895 120.609 9.6935C120.306 9.78883 120.024 9.89283 119.764 10.0055C119.513 10.1182 119.305 10.2178 119.14 10.3045V15.0625H118.139ZM122.724 15.0625V5.7415H123.725V15.0625H122.724ZM127.734 15.1925C127.474 15.1925 127.227 15.1622 126.993 15.1015C126.759 15.0495 126.542 14.9542 126.343 14.8155C126.152 14.6768 125.983 14.4862 125.836 14.2435C125.689 13.9922 125.576 13.6715 125.498 13.2815C125.42 12.8915 125.381 12.4192 125.381 11.8645C125.381 11.0932 125.472 10.4562 125.654 9.9535C125.836 9.44217 126.126 9.06083 126.525 8.8095C126.924 8.55817 127.452 8.4325 128.111 8.4325C128.362 8.4325 128.644 8.45417 128.956 8.4975C129.268 8.53217 129.511 8.56683 129.684 8.6015V5.7415H130.698V15.0625H129.697V14.6335C129.558 14.7115 129.376 14.7938 129.151 14.8805C128.934 14.9672 128.7 15.0408 128.449 15.1015C128.206 15.1622 127.968 15.1925 127.734 15.1925ZM127.864 14.2825C128.089 14.2825 128.315 14.2565 128.54 14.2045C128.774 14.1525 128.991 14.0918 129.19 14.0225C129.389 13.9445 129.554 13.8752 129.684 13.8145V9.4595C129.58 9.44217 129.437 9.42483 129.255 9.4075C129.073 9.3815 128.882 9.35983 128.683 9.3425C128.492 9.32517 128.319 9.3165 128.163 9.3165C127.721 9.3165 127.374 9.41183 127.123 9.6025C126.872 9.79317 126.69 10.0792 126.577 10.4605C126.473 10.8332 126.421 11.3012 126.421 11.8645C126.421 12.3845 126.46 12.8048 126.538 13.1255C126.616 13.4375 126.72 13.6802 126.85 13.8535C126.989 14.0182 127.145 14.1308 127.318 14.1915C127.491 14.2522 127.673 14.2825 127.864 14.2825ZM137.926 15.1925C137.198 15.1925 136.63 15.0668 136.223 14.8155C135.824 14.5642 135.543 14.1828 135.378 13.6715C135.222 13.1602 135.144 12.5145 135.144 11.7345C135.144 10.9892 135.231 10.3738 135.404 9.8885C135.586 9.40317 135.881 9.03917 136.288 8.7965C136.695 8.55383 137.241 8.4325 137.926 8.4325C138.619 8.4325 139.17 8.55383 139.577 8.7965C139.984 9.03917 140.275 9.40317 140.448 9.8885C140.63 10.3738 140.721 10.9892 140.721 11.7345C140.721 12.5145 140.639 13.1602 140.474 13.6715C140.318 14.1828 140.036 14.5642 139.629 14.8155C139.23 15.0668 138.663 15.1925 137.926 15.1925ZM137.926 14.3215C138.429 14.3215 138.806 14.2348 139.057 14.0615C139.308 13.8795 139.473 13.5978 139.551 13.2165C139.638 12.8352 139.681 12.3412 139.681 11.7345C139.681 11.1365 139.629 10.6598 139.525 10.3045C139.421 9.94917 139.243 9.6935 138.992 9.5375C138.741 9.3815 138.385 9.3035 137.926 9.3035C137.475 9.3035 137.12 9.3815 136.86 9.5375C136.609 9.6935 136.431 9.94917 136.327 10.3045C136.223 10.6598 136.171 11.1365 136.171 11.7345C136.171 12.3412 136.21 12.8352 136.288 13.2165C136.375 13.5978 136.544 13.8795 136.795 14.0615C137.046 14.2348 137.423 14.3215 137.926 14.3215ZM142.584 15.0625V9.4335H141.765V8.5625H142.584V7.9905C142.584 7.3665 142.64 6.88117 142.753 6.5345C142.866 6.18783 143.052 5.9495 143.312 5.8195C143.572 5.68083 143.914 5.6115 144.339 5.6115C144.443 5.6115 144.586 5.61583 144.768 5.6245C144.95 5.63317 145.128 5.64617 145.301 5.6635C145.474 5.67217 145.596 5.68517 145.665 5.7025L145.652 6.5475C145.496 6.53883 145.305 6.5345 145.08 6.5345C144.863 6.52583 144.686 6.5215 144.547 6.5215C144.304 6.5215 144.114 6.56483 143.975 6.6515C143.836 6.7295 143.737 6.87683 143.676 7.0935C143.624 7.31017 143.598 7.6135 143.598 8.0035V8.5625H145.47V9.4335H143.598V15.0625H142.584ZM149.64 15.0625V6.0795H150.68V10.0835H155.191V6.0795H156.231V15.0625H155.191V11.0065H150.68V15.0625H149.64ZM159.673 15.1925C159.075 15.1925 158.62 15.0235 158.308 14.6855C157.996 14.3475 157.84 13.8535 157.84 13.2035C157.84 12.7788 157.914 12.4322 158.061 12.1635C158.209 11.8948 158.43 11.6912 158.724 11.5525C159.028 11.4052 159.4 11.3142 159.842 11.2795L161.844 11.0845V10.5255C161.844 10.0835 161.745 9.7715 161.545 9.5895C161.355 9.4075 161.069 9.3165 160.687 9.3165C160.471 9.3165 160.211 9.32517 159.907 9.3425C159.613 9.35983 159.318 9.3815 159.023 9.4075C158.729 9.4335 158.469 9.4595 158.243 9.4855L158.191 8.7185C158.399 8.67517 158.651 8.63183 158.945 8.5885C159.24 8.54517 159.548 8.5105 159.868 8.4845C160.189 8.44983 160.484 8.4325 160.752 8.4325C161.246 8.4325 161.649 8.5105 161.961 8.6665C162.273 8.81383 162.499 9.0435 162.637 9.3555C162.785 9.65883 162.858 10.0488 162.858 10.5255V13.8145C162.876 14.0052 162.949 14.1438 163.079 14.2305C163.218 14.3172 163.391 14.3735 163.599 14.3995L163.56 15.1925C163.37 15.1925 163.196 15.1795 163.04 15.1535C162.884 15.1362 162.737 15.1058 162.598 15.0625C162.486 15.0192 162.377 14.9672 162.273 14.9065C162.178 14.8458 162.083 14.7722 161.987 14.6855C161.823 14.7548 161.61 14.8285 161.35 14.9065C161.099 14.9845 160.826 15.0495 160.531 15.1015C160.245 15.1622 159.959 15.1925 159.673 15.1925ZM159.842 14.3475C160.076 14.3475 160.319 14.3258 160.57 14.2825C160.822 14.2392 161.06 14.1872 161.285 14.1265C161.511 14.0658 161.697 14.0095 161.844 13.9575V11.8385L159.959 12.0205C159.569 12.0552 159.288 12.1678 159.114 12.3585C158.95 12.5492 158.867 12.8222 158.867 13.1775C158.867 13.5415 158.95 13.8275 159.114 14.0355C159.279 14.2435 159.522 14.3475 159.842 14.3475ZM164.782 15.0625V8.5625H165.783V15.0625H164.782ZM164.782 7.1325V5.9625H165.783V7.1325H164.782ZM167.651 15.0625V5.7415H168.652V11.2275L169.653 11.1885L171.473 8.5625H172.63L170.537 11.5655L172.734 15.0625H171.577L169.679 12.0725L168.652 12.1245V15.0625H167.651ZM175.886 15.1925C175.331 15.1925 174.906 15.0798 174.612 14.8545C174.317 14.6292 174.113 14.2782 174.001 13.8015C173.897 13.3248 173.845 12.7095 173.845 11.9555V8.5625H174.846V11.9555C174.846 12.5275 174.872 12.9825 174.924 13.3205C174.984 13.6585 175.11 13.9055 175.301 14.0615C175.491 14.2088 175.777 14.2825 176.159 14.2825C176.54 14.2825 176.887 14.2305 177.199 14.1265C177.511 14.0225 177.762 13.9185 177.953 13.8145V8.5625H178.954V15.0625H177.953V14.6075C177.675 14.7635 177.372 14.9022 177.043 15.0235C176.722 15.1362 176.336 15.1925 175.886 15.1925ZM0.299 36.0625L2.756 27.0795H5.005L7.449 36.0625H6.409L5.772 33.7875H1.976L1.339 36.0625H0.299ZM2.197 32.8645H5.551L4.212 27.9635H3.536L2.197 32.8645ZM8.75814 36.0625V26.7415H9.75914V36.0625H8.75814ZM11.7923 36.0625V26.7415H12.7933V36.0625H11.7923ZM17.6049 36.0625V29.5625H18.6059V30.4335C18.7706 30.3208 18.9786 30.1995 19.2299 30.0695C19.4813 29.9308 19.7586 29.8008 20.0619 29.6795C20.3653 29.5582 20.6686 29.4715 20.9719 29.4195V30.4465C20.6773 30.5072 20.3783 30.5895 20.0749 30.6935C19.7716 30.7888 19.4899 30.8928 19.2299 31.0055C18.9786 31.1182 18.7706 31.2178 18.6059 31.3045V36.0625H17.6049ZM22.1118 36.0625V29.5625H23.1128V36.0625H22.1118ZM22.1118 28.1325V26.9625H23.1128V28.1325H22.1118ZM27.4899 39.1175C26.8139 39.1175 26.2679 39.0568 25.8519 38.9355C25.4446 38.8228 25.1456 38.6235 24.9549 38.3375C24.7729 38.0515 24.6819 37.6615 24.6819 37.1675C24.6819 36.9162 24.7209 36.6995 24.7989 36.5175C24.8769 36.3442 24.9896 36.1838 25.1369 36.0365C25.2929 35.8805 25.4836 35.7202 25.7089 35.5555C25.5963 35.4688 25.5053 35.3475 25.4359 35.1915C25.3753 35.0268 25.3449 34.8448 25.3449 34.6455C25.3449 34.5502 25.3926 34.3985 25.4879 34.1905C25.5919 33.9738 25.6916 33.7832 25.7869 33.6185C25.6049 33.5318 25.4359 33.4148 25.2799 33.2675C25.1326 33.1115 25.0113 32.9035 24.9159 32.6435C24.8206 32.3835 24.7729 32.0542 24.7729 31.6555C24.7729 30.8582 24.9983 30.2905 25.4489 29.9525C25.8996 29.6058 26.4846 29.4325 27.2039 29.4325C27.4379 29.4325 27.6849 29.4498 27.9449 29.4845C28.2049 29.5192 28.4086 29.5582 28.5559 29.6015L30.4929 29.5495V30.4075L29.2709 30.3815C29.3923 30.5028 29.4919 30.6632 29.5699 30.8625C29.6566 31.0618 29.6999 31.3262 29.6999 31.6555C29.6999 32.2188 29.6046 32.6608 29.4139 32.9815C29.2233 33.3022 28.9416 33.5275 28.5689 33.6575C28.1963 33.7875 27.7283 33.8525 27.1649 33.8525C27.1043 33.8525 27.0003 33.8482 26.8529 33.8395C26.7143 33.8222 26.6103 33.8092 26.5409 33.8005C26.4889 33.9218 26.4369 34.0605 26.3849 34.2165C26.3329 34.3725 26.3069 34.4808 26.3069 34.5415C26.3069 34.7062 26.3373 34.8318 26.3979 34.9185C26.4586 35.0052 26.5973 35.0615 26.8139 35.0875C27.0393 35.1135 27.3903 35.1265 27.8669 35.1265C28.4909 35.1265 28.9893 35.1785 29.3619 35.2825C29.7346 35.3865 29.9989 35.5772 30.1549 35.8545C30.3196 36.1232 30.4019 36.5175 30.4019 37.0375C30.4019 37.7742 30.1463 38.3028 29.6349 38.6235C29.1236 38.9528 28.4086 39.1175 27.4899 39.1175ZM27.5029 38.2595C28.1443 38.2595 28.6166 38.1685 28.9199 37.9865C29.2233 37.8045 29.3749 37.5055 29.3749 37.0895C29.3749 36.7688 29.3229 36.5305 29.2189 36.3745C29.1236 36.2272 28.9589 36.1275 28.7249 36.0755C28.4909 36.0322 28.1789 36.0105 27.7889 36.0105C27.7109 36.0105 27.6026 36.0105 27.4639 36.0105C27.3253 36.0018 27.1823 35.9975 27.0349 35.9975C26.8876 35.9888 26.7533 35.9802 26.6319 35.9715C26.5193 35.9628 26.4413 35.9585 26.3979 35.9585C26.1293 36.1492 25.9429 36.3182 25.8389 36.4655C25.7349 36.6215 25.6829 36.8252 25.6829 37.0765C25.6829 37.3625 25.7349 37.5922 25.8389 37.7655C25.9429 37.9388 26.1249 38.0645 26.3849 38.1425C26.6536 38.2205 27.0263 38.2595 27.5029 38.2595ZM27.2039 33.0465C27.7413 33.0465 28.1226 32.9425 28.3479 32.7345C28.5733 32.5178 28.6859 32.1582 28.6859 31.6555C28.6859 31.1528 28.5733 30.7932 28.3479 30.5765C28.1226 30.3598 27.7413 30.2515 27.2039 30.2515C26.7013 30.2515 26.3373 30.3598 26.1119 30.5765C25.8953 30.7932 25.7869 31.1528 25.7869 31.6555C25.7869 32.1582 25.8953 32.5178 26.1119 32.7345C26.3373 32.9425 26.7013 33.0465 27.2039 33.0465ZM31.6714 36.0625V26.7415H32.6724V29.9135C32.8977 29.8095 33.1967 29.7055 33.5694 29.6015C33.9507 29.4888 34.3147 29.4325 34.6614 29.4325C35.2594 29.4325 35.7144 29.5408 36.0264 29.7575C36.347 29.9655 36.5637 30.3035 36.6764 30.7715C36.7977 31.2395 36.8584 31.8548 36.8584 32.6175V36.0625H35.8444V32.6565C35.8444 32.0932 35.8097 31.6425 35.7404 31.3045C35.6797 30.9665 35.554 30.7238 35.3634 30.5765C35.1727 30.4205 34.878 30.3425 34.4794 30.3425C34.15 30.3425 33.8164 30.3858 33.4784 30.4725C33.1404 30.5592 32.8717 30.6415 32.6724 30.7195V36.0625H31.6714ZM40.7985 36.2055C40.3478 36.2055 39.9881 36.1362 39.7195 35.9975C39.4595 35.8588 39.2731 35.6205 39.1605 35.2825C39.0478 34.9358 38.9915 34.4505 38.9915 33.8265V30.4335H38.0685V29.5625H38.9915V27.5735H39.9925V29.5625H42.0335V30.4335H39.9925V33.5275C39.9925 33.9868 40.0098 34.3465 40.0445 34.6065C40.0878 34.8578 40.1745 35.0355 40.3045 35.1395C40.4345 35.2435 40.6381 35.2955 40.9155 35.2955C41.0021 35.2955 41.1148 35.2912 41.2535 35.2825C41.3921 35.2738 41.5308 35.2652 41.6695 35.2565C41.8168 35.2392 41.9468 35.2262 42.0595 35.2175L42.1245 36.0625C41.9338 36.0885 41.7085 36.1188 41.4485 36.1535C41.1885 36.1882 40.9718 36.2055 40.7985 36.2055ZM45.2521 36.1925C45.0528 36.1925 44.8101 36.1795 44.5241 36.1535C44.2468 36.1275 43.9694 36.0972 43.6921 36.0625C43.4148 36.0192 43.1678 35.9802 42.9511 35.9455L43.0031 35.0745C43.2198 35.1005 43.4624 35.1308 43.7311 35.1655C44.0084 35.2002 44.2771 35.2305 44.5371 35.2565C44.7971 35.2738 45.0051 35.2825 45.1611 35.2825C45.5164 35.2825 45.8111 35.2522 46.0451 35.1915C46.2791 35.1222 46.4568 35.0095 46.5781 34.8535C46.6994 34.6975 46.7601 34.4765 46.7601 34.1905C46.7601 33.9738 46.7124 33.8048 46.6171 33.6835C46.5304 33.5622 46.3614 33.4625 46.1101 33.3845C45.8674 33.3065 45.5121 33.2328 45.0441 33.1635C44.5588 33.0855 44.1514 32.9902 43.8221 32.8775C43.5014 32.7562 43.2631 32.5785 43.1071 32.3445C42.9511 32.1105 42.8731 31.7768 42.8731 31.3435C42.8731 30.8582 42.9858 30.4768 43.2111 30.1995C43.4364 29.9222 43.7268 29.7272 44.0821 29.6145C44.4461 29.4932 44.8231 29.4325 45.2131 29.4325C45.4558 29.4325 45.7201 29.4455 46.0061 29.4715C46.3008 29.4975 46.5868 29.5322 46.8641 29.5755C47.1414 29.6102 47.3798 29.6448 47.5791 29.6795L47.5531 30.5505C47.3451 30.5158 47.1024 30.4855 46.8251 30.4595C46.5478 30.4248 46.2704 30.3988 45.9931 30.3815C45.7158 30.3555 45.4731 30.3425 45.2651 30.3425C45.0051 30.3425 44.7711 30.3728 44.5631 30.4335C44.3551 30.4855 44.1904 30.5808 44.0691 30.7195C43.9478 30.8582 43.8871 31.0532 43.8871 31.3045C43.8871 31.4952 43.9304 31.6512 44.0171 31.7725C44.1038 31.8852 44.2684 31.9805 44.5111 32.0585C44.7538 32.1365 45.1048 32.2145 45.5641 32.2925C46.1014 32.3792 46.5304 32.4875 46.8511 32.6175C47.1804 32.7475 47.4188 32.9295 47.5661 33.1635C47.7134 33.3975 47.7871 33.7268 47.7871 34.1515C47.7871 34.9142 47.5618 35.4472 47.1111 35.7505C46.6604 36.0452 46.0408 36.1925 45.2521 36.1925ZM52.1362 36.0625V29.5625H53.1372V30.4335C53.3019 30.3208 53.5099 30.1995 53.7612 30.0695C54.0125 29.9308 54.2899 29.8008 54.5932 29.6795C54.8965 29.5582 55.1999 29.4715 55.5032 29.4195V30.4465C55.2085 30.5072 54.9095 30.5895 54.6062 30.6935C54.3029 30.7888 54.0212 30.8928 53.7612 31.0055C53.5099 31.1182 53.3019 31.2178 53.1372 31.3045V36.0625H52.1362ZM58.944 36.1925C58.294 36.1925 57.7784 36.0668 57.397 35.8155C57.0244 35.5642 56.7557 35.1915 56.591 34.6975C56.4264 34.2035 56.344 33.5882 56.344 32.8515C56.344 32.0282 56.4567 31.3695 56.682 30.8755C56.9074 30.3728 57.2237 30.0088 57.631 29.7835C58.0384 29.5495 58.5194 29.4325 59.074 29.4325C59.9407 29.4325 60.595 29.6752 61.037 30.1605C61.479 30.6372 61.7 31.4085 61.7 32.4745L61.648 33.2415H57.371C57.3797 33.9175 57.5054 34.4288 57.748 34.7755C57.9907 35.1222 58.4284 35.2955 59.061 35.2955C59.3037 35.2955 59.568 35.2912 59.854 35.2825C60.1487 35.2652 60.439 35.2478 60.725 35.2305C61.011 35.2132 61.2537 35.1958 61.453 35.1785L61.479 35.9715C61.271 36.0062 61.0154 36.0408 60.712 36.0755C60.4174 36.1102 60.114 36.1362 59.802 36.1535C59.49 36.1795 59.204 36.1925 58.944 36.1925ZM57.371 32.4225H60.686C60.686 31.6252 60.556 31.0705 60.296 30.7585C60.0447 30.4378 59.6374 30.2775 59.074 30.2775C58.528 30.2775 58.1077 30.4422 57.813 30.7715C57.5184 31.1008 57.371 31.6512 57.371 32.4225ZM65.2345 36.1925C65.0352 36.1925 64.7925 36.1795 64.5065 36.1535C64.2292 36.1275 63.9518 36.0972 63.6745 36.0625C63.3972 36.0192 63.1502 35.9802 62.9335 35.9455L62.9855 35.0745C63.2022 35.1005 63.4448 35.1308 63.7135 35.1655C63.9908 35.2002 64.2595 35.2305 64.5195 35.2565C64.7795 35.2738 64.9875 35.2825 65.1435 35.2825C65.4988 35.2825 65.7935 35.2522 66.0275 35.1915C66.2615 35.1222 66.4392 35.0095 66.5605 34.8535C66.6818 34.6975 66.7425 34.4765 66.7425 34.1905C66.7425 33.9738 66.6948 33.8048 66.5995 33.6835C66.5128 33.5622 66.3438 33.4625 66.0925 33.3845C65.8498 33.3065 65.4945 33.2328 65.0265 33.1635C64.5412 33.0855 64.1338 32.9902 63.8045 32.8775C63.4838 32.7562 63.2455 32.5785 63.0895 32.3445C62.9335 32.1105 62.8555 31.7768 62.8555 31.3435C62.8555 30.8582 62.9682 30.4768 63.1935 30.1995C63.4188 29.9222 63.7092 29.7272 64.0645 29.6145C64.4285 29.4932 64.8055 29.4325 65.1955 29.4325C65.4382 29.4325 65.7025 29.4455 65.9885 29.4715C66.2832 29.4975 66.5692 29.5322 66.8465 29.5755C67.1238 29.6102 67.3622 29.6448 67.5615 29.6795L67.5355 30.5505C67.3275 30.5158 67.0848 30.4855 66.8075 30.4595C66.5302 30.4248 66.2528 30.3988 65.9755 30.3815C65.6982 30.3555 65.4555 30.3425 65.2475 30.3425C64.9875 30.3425 64.7535 30.3728 64.5455 30.4335C64.3375 30.4855 64.1728 30.5808 64.0515 30.7195C63.9302 30.8582 63.8695 31.0532 63.8695 31.3045C63.8695 31.4952 63.9128 31.6512 63.9995 31.7725C64.0862 31.8852 64.2508 31.9805 64.4935 32.0585C64.7362 32.1365 65.0872 32.2145 65.5465 32.2925C66.0838 32.3792 66.5128 32.4875 66.8335 32.6175C67.1628 32.7475 67.4012 32.9295 67.5485 33.1635C67.6958 33.3975 67.7695 33.7268 67.7695 34.1515C67.7695 34.9142 67.5442 35.4472 67.0935 35.7505C66.6428 36.0452 66.0232 36.1925 65.2345 36.1925ZM71.5632 36.1925C70.9132 36.1925 70.3975 36.0668 70.0162 35.8155C69.6435 35.5642 69.3748 35.1915 69.2102 34.6975C69.0455 34.2035 68.9632 33.5882 68.9632 32.8515C68.9632 32.0282 69.0758 31.3695 69.3012 30.8755C69.5265 30.3728 69.8428 30.0088 70.2502 29.7835C70.6575 29.5495 71.1385 29.4325 71.6932 29.4325C72.5598 29.4325 73.2142 29.6752 73.6562 30.1605C74.0982 30.6372 74.3192 31.4085 74.3192 32.4745L74.2672 33.2415H69.9902C69.9988 33.9175 70.1245 34.4288 70.3672 34.7755C70.6098 35.1222 71.0475 35.2955 71.6802 35.2955C71.9228 35.2955 72.1872 35.2912 72.4732 35.2825C72.7678 35.2652 73.0582 35.2478 73.3442 35.2305C73.6302 35.2132 73.8728 35.1958 74.0722 35.1785L74.0982 35.9715C73.8902 36.0062 73.6345 36.0408 73.3312 36.0755C73.0365 36.1102 72.7332 36.1362 72.4212 36.1535C72.1092 36.1795 71.8232 36.1925 71.5632 36.1925ZM69.9902 32.4225H73.3052C73.3052 31.6252 73.1752 31.0705 72.9152 30.7585C72.6638 30.4378 72.2565 30.2775 71.6932 30.2775C71.1472 30.2775 70.7268 30.4422 70.4322 30.7715C70.1375 31.1008 69.9902 31.6512 69.9902 32.4225ZM75.8256 36.0625V29.5625H76.8266V30.4335C76.9913 30.3208 77.1993 30.1995 77.4506 30.0695C77.702 29.9308 77.9793 29.8008 78.2826 29.6795C78.586 29.5582 78.8893 29.4715 79.1926 29.4195V30.4465C78.898 30.5072 78.599 30.5895 78.2956 30.6935C77.9923 30.7888 77.7106 30.8928 77.4506 31.0055C77.1993 31.1182 76.9913 31.2178 76.8266 31.3045V36.0625H75.8256ZM81.5285 36.0625L79.7085 29.5625H80.8005L82.2825 35.1915H82.7765L84.3105 29.5625H85.3505L83.5305 36.0625H81.5285ZM88.905 36.1925C88.255 36.1925 87.7393 36.0668 87.358 35.8155C86.9853 35.5642 86.7166 35.1915 86.552 34.6975C86.3873 34.2035 86.305 33.5882 86.305 32.8515C86.305 32.0282 86.4176 31.3695 86.643 30.8755C86.8683 30.3728 87.1846 30.0088 87.592 29.7835C87.9993 29.5495 88.4803 29.4325 89.035 29.4325C89.9016 29.4325 90.556 29.6752 90.998 30.1605C91.44 30.6372 91.661 31.4085 91.661 32.4745L91.609 33.2415H87.332C87.3406 33.9175 87.4663 34.4288 87.709 34.7755C87.9516 35.1222 88.3893 35.2955 89.022 35.2955C89.2646 35.2955 89.529 35.2912 89.815 35.2825C90.1096 35.2652 90.4 35.2478 90.686 35.2305C90.972 35.2132 91.2146 35.1958 91.414 35.1785L91.44 35.9715C91.232 36.0062 90.9763 36.0408 90.673 36.0755C90.3783 36.1102 90.075 36.1362 89.763 36.1535C89.451 36.1795 89.165 36.1925 88.905 36.1925ZM87.332 32.4225H90.647C90.647 31.6252 90.517 31.0705 90.257 30.7585C90.0056 30.4378 89.5983 30.2775 89.035 30.2775C88.489 30.2775 88.0686 30.4422 87.774 30.7715C87.4793 31.1008 87.332 31.6512 87.332 32.4225ZM95.2214 36.1925C94.9614 36.1925 94.7144 36.1622 94.4804 36.1015C94.2464 36.0495 94.0298 35.9542 93.8304 35.8155C93.6398 35.6768 93.4708 35.4862 93.3234 35.2435C93.1761 34.9922 93.0634 34.6715 92.9854 34.2815C92.9074 33.8915 92.8684 33.4192 92.8684 32.8645C92.8684 32.0932 92.9594 31.4562 93.1414 30.9535C93.3234 30.4422 93.6138 30.0608 94.0124 29.8095C94.4111 29.5582 94.9398 29.4325 95.5984 29.4325C95.8498 29.4325 96.1314 29.4542 96.4434 29.4975C96.7554 29.5322 96.9981 29.5668 97.1714 29.6015V26.7415H98.1854V36.0625H97.1844V35.6335C97.0458 35.7115 96.8638 35.7938 96.6384 35.8805C96.4218 35.9672 96.1878 36.0408 95.9364 36.1015C95.6938 36.1622 95.4554 36.1925 95.2214 36.1925ZM95.3514 35.2825C95.5768 35.2825 95.8021 35.2565 96.0274 35.2045C96.2614 35.1525 96.4781 35.0918 96.6774 35.0225C96.8768 34.9445 97.0414 34.8752 97.1714 34.8145V30.4595C97.0674 30.4422 96.9244 30.4248 96.7424 30.4075C96.5604 30.3815 96.3698 30.3598 96.1704 30.3425C95.9798 30.3252 95.8064 30.3165 95.6504 30.3165C95.2084 30.3165 94.8618 30.4118 94.6104 30.6025C94.3591 30.7932 94.1771 31.0792 94.0644 31.4605C93.9604 31.8332 93.9084 32.3012 93.9084 32.8645C93.9084 33.3845 93.9474 33.8048 94.0254 34.1255C94.1034 34.4375 94.2074 34.6802 94.3374 34.8535C94.4761 35.0182 94.6321 35.1308 94.8054 35.1915C94.9788 35.2522 95.1608 35.2825 95.3514 35.2825Z" fill="white"/>
<path d="M0.819 60.0625V51.1835H4.16C4.89667 51.1835 5.50767 51.2875 5.993 51.4955C6.47833 51.6948 6.84233 52.0198 7.085 52.4705C7.33633 52.9212 7.462 53.5235 7.462 54.2775C7.462 55.0315 7.33633 55.6468 7.085 56.1235C6.84233 56.5915 6.47833 56.9382 5.993 57.1635C5.50767 57.3802 4.89667 57.4885 4.16 57.4885H2.613V60.0625H0.819ZM2.613 56.0195H4.108C4.654 56.0195 5.044 55.8765 5.278 55.5905C5.512 55.2958 5.629 54.8625 5.629 54.2905C5.629 53.7012 5.512 53.2808 5.278 53.0295C5.044 52.7782 4.654 52.6525 4.108 52.6525H2.613V56.0195ZM8.50992 60.0625V53.5365H10.2389V54.3035C10.3863 54.1908 10.5683 54.0738 10.7849 53.9525C11.0016 53.8225 11.2356 53.7055 11.4869 53.6015C11.7469 53.4888 11.9939 53.4152 12.2279 53.3805V55.0575C12.0026 55.0922 11.7643 55.1528 11.5129 55.2395C11.2616 55.3175 11.0233 55.4042 10.7979 55.4995C10.5813 55.5948 10.3949 55.6815 10.2389 55.7595V60.0625H8.50992ZM13.131 60.0625V53.5365H14.86V60.0625H13.131ZM13.131 52.4965V51.0145H14.873V52.4965H13.131ZM17.3318 60.0625L15.7848 53.5365H17.6438L18.7358 58.5935H19.1128L20.2308 53.5365H21.9858L20.4388 60.0625H17.3318ZM24.5967 60.2055C23.9207 60.2055 23.4094 60.0365 23.0627 59.6985C22.7247 59.3518 22.5557 58.8318 22.5557 58.1385C22.5557 57.6532 22.6424 57.2762 22.8157 57.0075C22.989 56.7302 23.2447 56.5308 23.5827 56.4095C23.9294 56.2795 24.3497 56.2015 24.8437 56.1755L26.4297 56.0325V55.6425C26.4297 55.3305 26.3517 55.1138 26.1957 54.9925C26.0397 54.8625 25.81 54.7975 25.5067 54.7975C25.264 54.7975 24.9824 54.8062 24.6617 54.8235C24.3497 54.8408 24.0377 54.8625 23.7257 54.8885C23.4224 54.9145 23.158 54.9405 22.9327 54.9665L22.8807 53.7445C23.106 53.6925 23.3747 53.6405 23.6867 53.5885C24.0074 53.5278 24.341 53.4802 24.6877 53.4455C25.0344 53.4108 25.355 53.3935 25.6497 53.3935C26.2044 53.3935 26.668 53.4628 27.0407 53.6015C27.4134 53.7402 27.695 53.9698 27.8857 54.2905C28.0764 54.6025 28.1717 55.0272 28.1717 55.5645V58.5415C28.189 58.6628 28.254 58.7582 28.3667 58.8275C28.4794 58.8882 28.6094 58.9315 28.7567 58.9575L28.7177 60.1535C28.5097 60.1622 28.306 60.1665 28.1067 60.1665C27.9074 60.1665 27.7384 60.1535 27.5997 60.1275C27.4004 60.1015 27.227 60.0495 27.0797 59.9715C26.941 59.8935 26.8284 59.8112 26.7417 59.7245C26.603 59.7852 26.4167 59.8545 26.1827 59.9325C25.9487 60.0105 25.693 60.0755 25.4157 60.1275C25.147 60.1795 24.874 60.2055 24.5967 60.2055ZM25.0127 58.9185C25.1774 58.9185 25.3507 58.9012 25.5327 58.8665C25.7147 58.8318 25.8837 58.7928 26.0397 58.7495C26.2044 58.6975 26.3344 58.6498 26.4297 58.6065V57.1115L25.1037 57.2285C24.8177 57.2545 24.6097 57.3412 24.4797 57.4885C24.3584 57.6272 24.2977 57.8265 24.2977 58.0865C24.2977 58.3465 24.354 58.5502 24.4667 58.6975C24.588 58.8448 24.77 58.9185 25.0127 58.9185ZM32.3634 60.2055C31.6181 60.2055 31.0331 60.0928 30.6084 59.8675C30.1924 59.6335 29.8977 59.2608 29.7244 58.7495C29.5597 58.2382 29.4774 57.5665 29.4774 56.7345C29.4774 55.9112 29.5727 55.2568 29.7634 54.7715C29.9541 54.2775 30.2617 53.9265 30.6864 53.7185C31.1197 53.5018 31.6831 53.3935 32.3764 53.3935C32.5584 53.3935 32.7707 53.4065 33.0134 53.4325C33.2561 53.4585 33.4987 53.4932 33.7414 53.5365C33.9927 53.5712 34.2051 53.6058 34.3784 53.6405L34.3134 55.0315C34.1487 55.0142 33.9624 55.0012 33.7544 54.9925C33.5464 54.9752 33.3427 54.9622 33.1434 54.9535C32.9527 54.9362 32.7967 54.9275 32.6754 54.9275C32.3027 54.9275 32.0081 54.9882 31.7914 55.1095C31.5834 55.2222 31.4361 55.4128 31.3494 55.6815C31.2714 55.9415 31.2324 56.2925 31.2324 56.7345C31.2324 57.2112 31.2714 57.5925 31.3494 57.8785C31.4274 58.1645 31.5661 58.3682 31.7654 58.4895C31.9734 58.6108 32.2767 58.6715 32.6754 58.6715C32.7967 58.6715 32.9571 58.6672 33.1564 58.6585C33.3557 58.6412 33.5594 58.6238 33.7674 58.6065C33.9841 58.5892 34.1747 58.5762 34.3394 58.5675L34.3914 59.9585C34.2181 59.9932 34.0101 60.0278 33.7674 60.0625C33.5247 60.1058 33.2777 60.1405 33.0264 60.1665C32.7837 60.1925 32.5627 60.2055 32.3634 60.2055ZM37.1119 62.8055L37.9439 60.0625H36.5529L35.0059 53.5365H36.8129L37.9699 58.5935H38.3079L39.4649 53.5365H41.2069L38.9579 62.8055H37.1119ZM45.0495 60.0625V51.1835H48.3905C49.1271 51.1835 49.7381 51.2875 50.2235 51.4955C50.7088 51.6948 51.0728 52.0198 51.3155 52.4705C51.5668 52.9212 51.6925 53.5235 51.6925 54.2775C51.6925 55.0315 51.5668 55.6468 51.3155 56.1235C51.0728 56.5915 50.7088 56.9382 50.2235 57.1635C49.7381 57.3802 49.1271 57.4885 48.3905 57.4885H46.8435V60.0625H45.0495ZM46.8435 56.0195H48.3385C48.8845 56.0195 49.2745 55.8765 49.5085 55.5905C49.7425 55.2958 49.8595 54.8625 49.8595 54.2905C49.8595 53.7012 49.7425 53.2808 49.5085 53.0295C49.2745 52.7782 48.8845 52.6525 48.3385 52.6525H46.8435V56.0195ZM55.5484 60.2055C54.8117 60.2055 54.2181 60.0842 53.7674 59.8415C53.3254 59.5988 53.0047 59.2262 52.8054 58.7235C52.6061 58.2122 52.5064 57.5535 52.5064 56.7475C52.5064 55.9675 52.6104 55.3348 52.8184 54.8495C53.0264 54.3555 53.3557 53.9915 53.8064 53.7575C54.2571 53.5148 54.8377 53.3935 55.5484 53.3935C56.2677 53.3935 56.8484 53.5148 57.2904 53.7575C57.7411 53.9915 58.0704 54.3555 58.2784 54.8495C58.4951 55.3348 58.6034 55.9675 58.6034 56.7475C58.6034 57.5535 58.5037 58.2122 58.3044 58.7235C58.1051 59.2262 57.7801 59.5988 57.3294 59.8415C56.8874 60.0842 56.2937 60.2055 55.5484 60.2055ZM55.5484 58.7755C55.9124 58.7755 56.1854 58.7105 56.3674 58.5805C56.5494 58.4418 56.6707 58.2252 56.7314 57.9305C56.8007 57.6272 56.8354 57.2328 56.8354 56.7475C56.8354 56.2708 56.7964 55.8938 56.7184 55.6165C56.6404 55.3305 56.5104 55.1268 56.3284 55.0055C56.1464 54.8842 55.8864 54.8235 55.5484 54.8235C55.2191 54.8235 54.9591 54.8842 54.7684 55.0055C54.5864 55.1268 54.4564 55.3305 54.3784 55.6165C54.3004 55.8938 54.2614 56.2708 54.2614 56.7475C54.2614 57.2328 54.2917 57.6272 54.3524 57.9305C54.4217 58.2252 54.5474 58.4418 54.7294 58.5805C54.9114 58.7105 55.1844 58.7755 55.5484 58.7755ZM59.8383 60.0625V50.8715H61.5673V60.0625H59.8383ZM63.049 60.0625V53.5365H64.778V60.0625H63.049ZM63.049 52.4965V51.0145H64.791V52.4965H63.049ZM68.8878 60.2055C68.1425 60.2055 67.5575 60.0928 67.1328 59.8675C66.7168 59.6335 66.4221 59.2608 66.2488 58.7495C66.0841 58.2382 66.0018 57.5665 66.0018 56.7345C66.0018 55.9112 66.0971 55.2568 66.2878 54.7715C66.4785 54.2775 66.7861 53.9265 67.2108 53.7185C67.6441 53.5018 68.2075 53.3935 68.9008 53.3935C69.0828 53.3935 69.2951 53.4065 69.5378 53.4325C69.7805 53.4585 70.0231 53.4932 70.2658 53.5365C70.5171 53.5712 70.7295 53.6058 70.9028 53.6405L70.8378 55.0315C70.6731 55.0142 70.4868 55.0012 70.2788 54.9925C70.0708 54.9752 69.8671 54.9622 69.6678 54.9535C69.4771 54.9362 69.3211 54.9275 69.1998 54.9275C68.8271 54.9275 68.5325 54.9882 68.3158 55.1095C68.1078 55.2222 67.9605 55.4128 67.8738 55.6815C67.7958 55.9415 67.7568 56.2925 67.7568 56.7345C67.7568 57.2112 67.7958 57.5925 67.8738 57.8785C67.9518 58.1645 68.0905 58.3682 68.2898 58.4895C68.4978 58.6108 68.8011 58.6715 69.1998 58.6715C69.3211 58.6715 69.4815 58.6672 69.6808 58.6585C69.8801 58.6412 70.0838 58.6238 70.2918 58.6065C70.5085 58.5892 70.6991 58.5762 70.8638 58.5675L70.9158 59.9585C70.7425 59.9932 70.5345 60.0278 70.2918 60.0625C70.0491 60.1058 69.8021 60.1405 69.5508 60.1665C69.3081 60.1925 69.0871 60.2055 68.8878 60.2055ZM73.6363 62.8055L74.4683 60.0625H73.0773L71.5303 53.5365H73.3373L74.4943 58.5935H74.8323L75.9893 53.5365H77.7313L75.4823 62.8055H73.6363Z" fill="#D0F83E"/>
<path d="M90.466 63.0905H89.53V49.9345H90.466V63.0905Z" fill="white"/>
<path d="M104.535 60.0625V52.7045H102.143V51.1835H108.643V52.7045H106.329V60.0625H104.535ZM112.159 60.2055C111.439 60.2055 110.867 60.0842 110.443 59.8415C110.027 59.5988 109.728 59.2305 109.546 58.7365C109.364 58.2425 109.273 57.6228 109.273 56.8775C109.273 56.0715 109.385 55.4128 109.611 54.9015C109.845 54.3902 110.183 54.0132 110.625 53.7705C111.067 53.5192 111.613 53.3935 112.263 53.3935C113.225 53.3935 113.948 53.6362 114.434 54.1215C114.928 54.6068 115.175 55.3738 115.175 56.4225L115.097 57.3845H111.015C111.023 57.8698 111.123 58.2338 111.314 58.4765C111.504 58.7192 111.834 58.8405 112.302 58.8405C112.57 58.8405 112.865 58.8362 113.186 58.8275C113.506 58.8102 113.823 58.7928 114.135 58.7755C114.455 58.7582 114.728 58.7408 114.954 58.7235L114.993 59.9325C114.776 59.9672 114.503 60.0062 114.174 60.0495C113.844 60.0928 113.502 60.1275 113.147 60.1535C112.8 60.1882 112.471 60.2055 112.159 60.2055ZM111.015 56.2795H113.446C113.446 55.6902 113.35 55.2785 113.16 55.0445C112.978 54.8105 112.679 54.6935 112.263 54.6935C111.855 54.6935 111.543 54.8148 111.327 55.0575C111.119 55.3002 111.015 55.7075 111.015 56.2795ZM116.324 60.0625V53.5365H118.053V54.3035C118.201 54.1908 118.383 54.0738 118.599 53.9525C118.816 53.8225 119.05 53.7055 119.301 53.6015C119.561 53.4888 119.808 53.4152 120.042 53.3805V55.0575C119.817 55.0922 119.579 55.1528 119.327 55.2395C119.076 55.3175 118.838 55.4042 118.612 55.4995C118.396 55.5948 118.209 55.6815 118.053 55.7595V60.0625H116.324ZM120.945 60.0625V53.5365H122.674V53.9525C122.874 53.8312 123.142 53.7098 123.48 53.5885C123.818 53.4585 124.139 53.3935 124.442 53.3935C124.841 53.3935 125.166 53.4498 125.417 53.5625C125.669 53.6665 125.877 53.8225 126.041 54.0305C126.197 53.9352 126.392 53.8398 126.626 53.7445C126.86 53.6492 127.116 53.5668 127.393 53.4975C127.671 53.4282 127.939 53.3935 128.199 53.3935C128.841 53.3935 129.33 53.5062 129.668 53.7315C130.006 53.9568 130.24 54.3122 130.37 54.7975C130.5 55.2742 130.565 55.8982 130.565 56.6695V60.0625H128.836V56.8255C128.836 56.3748 128.81 56.0108 128.758 55.7335C128.715 55.4475 128.62 55.2395 128.472 55.1095C128.334 54.9795 128.121 54.9145 127.835 54.9145C127.584 54.9145 127.337 54.9492 127.094 55.0185C126.852 55.0878 126.661 55.1572 126.522 55.2265C126.566 55.4085 126.596 55.6425 126.613 55.9285C126.639 56.2145 126.652 56.5135 126.652 56.8255V60.0625H124.923V56.8515C124.923 56.3922 124.897 56.0195 124.845 55.7335C124.802 55.4475 124.707 55.2395 124.559 55.1095C124.412 54.9795 124.2 54.9145 123.922 54.9145C123.68 54.9145 123.441 54.9492 123.207 55.0185C122.982 55.0878 122.804 55.1572 122.674 55.2265V60.0625H120.945ZM134.293 60.2055C134.007 60.2055 133.699 60.1882 133.37 60.1535C133.049 60.1275 132.746 60.0928 132.46 60.0495C132.182 60.0062 131.944 59.9628 131.745 59.9195L131.797 58.6325C132.022 58.6585 132.273 58.6888 132.551 58.7235C132.837 58.7582 133.114 58.7885 133.383 58.8145C133.66 58.8318 133.885 58.8405 134.059 58.8405C134.319 58.8405 134.531 58.8188 134.696 58.7755C134.869 58.7322 134.999 58.6628 135.086 58.5675C135.172 58.4635 135.216 58.3162 135.216 58.1255C135.216 57.9782 135.177 57.8655 135.099 57.7875C135.029 57.7095 134.891 57.6445 134.683 57.5925C134.483 57.5318 134.189 57.4712 133.799 57.4105C133.313 57.3412 132.91 57.2415 132.59 57.1115C132.278 56.9815 132.048 56.7908 131.901 56.5395C131.753 56.2795 131.68 55.9285 131.68 55.4865C131.68 54.9492 131.797 54.5288 132.031 54.2255C132.265 53.9222 132.577 53.7098 132.967 53.5885C133.357 53.4585 133.781 53.3935 134.241 53.3935C134.544 53.3935 134.856 53.4108 135.177 53.4455C135.497 53.4715 135.801 53.5062 136.087 53.5495C136.373 53.5928 136.611 53.6362 136.802 53.6795L136.75 54.9925C136.533 54.9578 136.282 54.9275 135.996 54.9015C135.71 54.8668 135.424 54.8408 135.138 54.8235C134.86 54.8062 134.626 54.7975 134.436 54.7975C134.236 54.7975 134.059 54.8192 133.903 54.8625C133.747 54.8972 133.625 54.9578 133.539 55.0445C133.461 55.1312 133.422 55.2612 133.422 55.4345C133.422 55.5558 133.456 55.6555 133.526 55.7335C133.595 55.8115 133.725 55.8808 133.916 55.9415C134.115 55.9935 134.401 56.0455 134.774 56.0975C135.311 56.1755 135.74 56.2838 136.061 56.4225C136.381 56.5612 136.611 56.7605 136.75 57.0205C136.897 57.2805 136.971 57.6315 136.971 58.0735C136.971 58.8622 136.737 59.4168 136.269 59.7375C135.809 60.0495 135.151 60.2055 134.293 60.2055ZM143.749 60.2055C143.012 60.2055 142.418 60.0842 141.968 59.8415C141.526 59.5988 141.205 59.2262 141.006 58.7235C140.806 58.2122 140.707 57.5535 140.707 56.7475C140.707 55.9675 140.811 55.3348 141.019 54.8495C141.227 54.3555 141.556 53.9915 142.007 53.7575C142.457 53.5148 143.038 53.3935 143.749 53.3935C144.468 53.3935 145.049 53.5148 145.491 53.7575C145.941 53.9915 146.271 54.3555 146.479 54.8495C146.695 55.3348 146.804 55.9675 146.804 56.7475C146.804 57.5535 146.704 58.2122 146.505 58.7235C146.305 59.2262 145.98 59.5988 145.53 59.8415C145.088 60.0842 144.494 60.2055 143.749 60.2055ZM143.749 58.7755C144.113 58.7755 144.386 58.7105 144.568 58.5805C144.75 58.4418 144.871 58.2252 144.932 57.9305C145.001 57.6272 145.036 57.2328 145.036 56.7475C145.036 56.2708 144.997 55.8938 144.919 55.6165C144.841 55.3305 144.711 55.1268 144.529 55.0055C144.347 54.8842 144.087 54.8235 143.749 54.8235C143.419 54.8235 143.159 54.8842 142.969 55.0055C142.787 55.1268 142.657 55.3305 142.579 55.6165C142.501 55.8938 142.462 56.2708 142.462 56.7475C142.462 57.2328 142.492 57.6272 142.553 57.9305C142.622 58.2252 142.748 58.4418 142.93 58.5805C143.112 58.7105 143.385 58.7755 143.749 58.7755ZM148.246 60.0625V54.9795H147.596V53.5365H148.246V53.1595C148.246 52.5442 148.303 52.0588 148.415 51.7035C148.537 51.3482 148.74 51.0968 149.026 50.9495C149.312 50.8022 149.698 50.7285 150.183 50.7285C150.322 50.7285 150.487 50.7372 150.677 50.7545C150.877 50.7632 151.067 50.7762 151.249 50.7935C151.431 50.8108 151.57 50.8282 151.665 50.8455L151.652 52.1715C151.514 52.1715 151.358 52.1715 151.184 52.1715C151.02 52.1628 150.877 52.1585 150.755 52.1585C150.565 52.1585 150.409 52.1888 150.287 52.2495C150.175 52.3102 150.092 52.4098 150.04 52.5485C149.997 52.6872 149.975 52.8865 149.975 53.1465V53.5365H151.535V54.9795H149.975V60.0625H148.246ZM158.238 60.2055C157.909 60.2055 157.549 60.1838 157.159 60.1405C156.769 60.1058 156.388 60.0625 156.015 60.0105C155.651 59.9498 155.339 59.8978 155.079 59.8545L155.196 58.4375C155.465 58.4722 155.777 58.5112 156.132 58.5545C156.487 58.5892 156.838 58.6195 157.185 58.6455C157.54 58.6715 157.848 58.6845 158.108 58.6845C158.602 58.6845 158.962 58.5892 159.187 58.3985C159.412 58.1992 159.525 57.8915 159.525 57.4755C159.525 57.2502 159.477 57.0725 159.382 56.9425C159.295 56.8038 159.135 56.6955 158.901 56.6175C158.667 56.5308 158.342 56.4485 157.926 56.3705C157.233 56.2405 156.669 56.0802 156.236 55.8895C155.811 55.6988 155.499 55.4302 155.3 55.0835C155.109 54.7368 155.014 54.2732 155.014 53.6925C155.014 53.0165 155.14 52.4878 155.391 52.1065C155.642 51.7165 156.002 51.4392 156.47 51.2745C156.938 51.1098 157.488 51.0275 158.121 51.0275C158.407 51.0275 158.732 51.0448 159.096 51.0795C159.469 51.1055 159.833 51.1402 160.188 51.1835C160.552 51.2268 160.86 51.2745 161.111 51.3265L161.033 52.7565C160.773 52.7218 160.47 52.6915 160.123 52.6655C159.785 52.6308 159.447 52.6005 159.109 52.5745C158.78 52.5485 158.498 52.5355 158.264 52.5355C157.77 52.5355 157.406 52.6135 157.172 52.7695C156.938 52.9255 156.821 53.1768 156.821 53.5235C156.821 53.7835 156.873 53.9828 156.977 54.1215C157.081 54.2602 157.254 54.3728 157.497 54.4595C157.748 54.5462 158.091 54.6372 158.524 54.7325C159.035 54.8452 159.469 54.9665 159.824 55.0965C160.188 55.2265 160.478 55.3825 160.695 55.5645C160.92 55.7465 161.085 55.9805 161.189 56.2665C161.293 56.5525 161.345 56.9122 161.345 57.3455C161.345 58.0388 161.219 58.5978 160.968 59.0225C160.725 59.4385 160.37 59.7418 159.902 59.9325C159.443 60.1145 158.888 60.2055 158.238 60.2055ZM165.124 60.2055C164.404 60.2055 163.832 60.0842 163.408 59.8415C162.992 59.5988 162.693 59.2305 162.511 58.7365C162.329 58.2425 162.238 57.6228 162.238 56.8775C162.238 56.0715 162.35 55.4128 162.576 54.9015C162.81 54.3902 163.148 54.0132 163.59 53.7705C164.032 53.5192 164.578 53.3935 165.228 53.3935C166.19 53.3935 166.913 53.6362 167.399 54.1215C167.893 54.6068 168.14 55.3738 168.14 56.4225L168.062 57.3845H163.98C163.988 57.8698 164.088 58.2338 164.279 58.4765C164.469 58.7192 164.799 58.8405 165.267 58.8405C165.535 58.8405 165.83 58.8362 166.151 58.8275C166.471 58.8102 166.788 58.7928 167.1 58.7755C167.42 58.7582 167.693 58.7408 167.919 58.7235L167.958 59.9325C167.741 59.9672 167.468 60.0062 167.139 60.0495C166.809 60.0928 166.467 60.1275 166.112 60.1535C165.765 60.1882 165.436 60.2055 165.124 60.2055ZM163.98 56.2795H166.411C166.411 55.6902 166.315 55.2785 166.125 55.0445C165.943 54.8105 165.644 54.6935 165.228 54.6935C164.82 54.6935 164.508 54.8148 164.292 55.0575C164.084 55.3002 163.98 55.7075 163.98 56.2795ZM169.289 60.0625V53.5365H171.018V54.3035C171.166 54.1908 171.348 54.0738 171.564 53.9525C171.781 53.8225 172.015 53.7055 172.266 53.6015C172.526 53.4888 172.773 53.4152 173.007 53.3805V55.0575C172.782 55.0922 172.544 55.1528 172.292 55.2395C172.041 55.3175 171.803 55.4042 171.577 55.4995C171.361 55.5948 171.174 55.6815 171.018 55.7595V60.0625H169.289ZM174.937 60.0625L173.39 53.5365H175.249L176.341 58.5935H176.718L177.836 53.5365H179.591L178.044 60.0625H174.937ZM180.499 60.0625V53.5365H182.228V60.0625H180.499ZM180.499 52.4965V51.0145H182.241V52.4965H180.499ZM186.338 60.2055C185.593 60.2055 185.008 60.0928 184.583 59.8675C184.167 59.6335 183.872 59.2608 183.699 58.7495C183.534 58.2382 183.452 57.5665 183.452 56.7345C183.452 55.9112 183.547 55.2568 183.738 54.7715C183.929 54.2775 184.236 53.9265 184.661 53.7185C185.094 53.5018 185.658 53.3935 186.351 53.3935C186.533 53.3935 186.745 53.4065 186.988 53.4325C187.231 53.4585 187.473 53.4932 187.716 53.5365C187.967 53.5712 188.18 53.6058 188.353 53.6405L188.288 55.0315C188.123 55.0142 187.937 55.0012 187.729 54.9925C187.521 54.9752 187.317 54.9622 187.118 54.9535C186.927 54.9362 186.771 54.9275 186.65 54.9275C186.277 54.9275 185.983 54.9882 185.766 55.1095C185.558 55.2222 185.411 55.4128 185.324 55.6815C185.246 55.9415 185.207 56.2925 185.207 56.7345C185.207 57.2112 185.246 57.5925 185.324 57.8785C185.402 58.1645 185.541 58.3682 185.74 58.4895C185.948 58.6108 186.251 58.6715 186.65 58.6715C186.771 58.6715 186.932 58.6672 187.131 58.6585C187.33 58.6412 187.534 58.6238 187.742 58.6065C187.959 58.5892 188.149 58.5762 188.314 58.5675L188.366 59.9585C188.193 59.9932 187.985 60.0278 187.742 60.0625C187.499 60.1058 187.252 60.1405 187.001 60.1665C186.758 60.1925 186.537 60.2055 186.338 60.2055ZM192.126 60.2055C191.407 60.2055 190.835 60.0842 190.41 59.8415C189.994 59.5988 189.695 59.2305 189.513 58.7365C189.331 58.2425 189.24 57.6228 189.24 56.8775C189.24 56.0715 189.353 55.4128 189.578 54.9015C189.812 54.3902 190.15 54.0132 190.592 53.7705C191.034 53.5192 191.58 53.3935 192.23 53.3935C193.192 53.3935 193.916 53.6362 194.401 54.1215C194.895 54.6068 195.142 55.3738 195.142 56.4225L195.064 57.3845H190.982C190.991 57.8698 191.091 58.2338 191.281 58.4765C191.472 58.7192 191.801 58.8405 192.269 58.8405C192.538 58.8405 192.833 58.8362 193.153 58.8275C193.474 58.8102 193.79 58.7928 194.102 58.7755C194.423 58.7582 194.696 58.7408 194.921 58.7235L194.96 59.9325C194.744 59.9672 194.471 60.0062 194.141 60.0495C193.812 60.0928 193.47 60.1275 193.114 60.1535C192.768 60.1882 192.438 60.2055 192.126 60.2055ZM190.982 56.2795H193.413C193.413 55.6902 193.318 55.2785 193.127 55.0445C192.945 54.8105 192.646 54.6935 192.23 54.6935C191.823 54.6935 191.511 54.8148 191.294 55.0575C191.086 55.3002 190.982 55.7075 190.982 56.2795Z" fill="#D0F83E"/>
<path d="M208.466 63.0905H207.53V49.9345H208.466V63.0905Z" fill="white"/>
<path d="M220.819 60.0625V51.1835H222.613V54.9275L223.731 54.9015L225.499 51.1835H227.371L225.278 55.5775L227.514 60.0625H225.59L223.744 56.5135L222.613 56.5395V60.0625H220.819ZM228.319 60.0625V53.5365H230.048V53.9525C230.187 53.8658 230.356 53.7835 230.555 53.7055C230.755 53.6188 230.963 53.5452 231.179 53.4845C231.405 53.4238 231.621 53.3935 231.829 53.3935C232.436 53.3935 232.904 53.5018 233.233 53.7185C233.571 53.9265 233.81 54.2732 233.948 54.7585C234.087 55.2352 234.156 55.8765 234.156 56.6825V60.0625H232.414V56.7735C232.414 56.3228 232.388 55.9632 232.336 55.6945C232.284 55.4172 232.185 55.2178 232.037 55.0965C231.89 54.9752 231.673 54.9145 231.387 54.9145C231.231 54.9145 231.067 54.9318 230.893 54.9665C230.729 54.9925 230.568 55.0315 230.412 55.0835C230.265 55.1355 230.144 55.1875 230.048 55.2395V60.0625H228.319ZM238.313 60.2055C237.576 60.2055 236.983 60.0842 236.532 59.8415C236.09 59.5988 235.769 59.2262 235.57 58.7235C235.371 58.2122 235.271 57.5535 235.271 56.7475C235.271 55.9675 235.375 55.3348 235.583 54.8495C235.791 54.3555 236.12 53.9915 236.571 53.7575C237.022 53.5148 237.602 53.3935 238.313 53.3935C239.032 53.3935 239.613 53.5148 240.055 53.7575C240.506 53.9915 240.835 54.3555 241.043 54.8495C241.26 55.3348 241.368 55.9675 241.368 56.7475C241.368 57.5535 241.268 58.2122 241.069 58.7235C240.87 59.2262 240.545 59.5988 240.094 59.8415C239.652 60.0842 239.058 60.2055 238.313 60.2055ZM238.313 58.7755C238.677 58.7755 238.95 58.7105 239.132 58.5805C239.314 58.4418 239.435 58.2252 239.496 57.9305C239.565 57.6272 239.6 57.2328 239.6 56.7475C239.6 56.2708 239.561 55.8938 239.483 55.6165C239.405 55.3305 239.275 55.1268 239.093 55.0055C238.911 54.8842 238.651 54.8235 238.313 54.8235C237.984 54.8235 237.724 54.8842 237.533 55.0055C237.351 55.1268 237.221 55.3305 237.143 55.6165C237.065 55.8938 237.026 56.2708 237.026 56.7475C237.026 57.2328 237.056 57.6272 237.117 57.9305C237.186 58.2252 237.312 58.4418 237.494 58.5805C237.676 58.7105 237.949 58.7755 238.313 58.7755ZM243.383 60.0625L242.135 53.5365H243.981L244.826 58.5935H245.021L246.074 53.6795H247.738L248.83 58.5935H249.025L249.87 53.5365H251.599L250.39 60.0625H247.777L246.854 55.8635L245.931 60.0625H243.383ZM252.67 60.0625V50.8715H254.399V60.0625H252.67ZM258.52 60.2055C257.801 60.2055 257.229 60.0842 256.804 59.8415C256.388 59.5988 256.089 59.2305 255.907 58.7365C255.725 58.2425 255.634 57.6228 255.634 56.8775C255.634 56.0715 255.747 55.4128 255.972 54.9015C256.206 54.3902 256.544 54.0132 256.986 53.7705C257.428 53.5192 257.974 53.3935 258.624 53.3935C259.586 53.3935 260.31 53.6362 260.795 54.1215C261.289 54.6068 261.536 55.3738 261.536 56.4225L261.458 57.3845H257.376C257.385 57.8698 257.484 58.2338 257.675 58.4765C257.866 58.7192 258.195 58.8405 258.663 58.8405C258.932 58.8405 259.226 58.8362 259.547 58.8275C259.868 58.8102 260.184 58.7928 260.496 58.7755C260.817 58.7582 261.09 58.7408 261.315 58.7235L261.354 59.9325C261.137 59.9672 260.864 60.0062 260.535 60.0495C260.206 60.0928 259.863 60.1275 259.508 60.1535C259.161 60.1882 258.832 60.2055 258.52 60.2055ZM257.376 56.2795H259.807C259.807 55.6902 259.712 55.2785 259.521 55.0445C259.339 54.8105 259.04 54.6935 258.624 54.6935C258.217 54.6935 257.905 54.8148 257.688 55.0575C257.48 55.3002 257.376 55.7075 257.376 56.2795ZM264.883 60.2055C264.571 60.2055 264.285 60.1665 264.025 60.0885C263.765 60.0192 263.535 59.9065 263.336 59.7505C263.145 59.5858 262.98 59.3735 262.842 59.1135C262.712 58.8535 262.612 58.5372 262.543 58.1645C262.473 57.7832 262.439 57.3412 262.439 56.8385C262.439 56.0932 262.53 55.4648 262.712 54.9535C262.902 54.4422 263.201 54.0565 263.609 53.7965C264.016 53.5278 264.558 53.3935 265.234 53.3935C265.433 53.3935 265.667 53.4108 265.936 53.4455C266.213 53.4715 266.434 53.4975 266.599 53.5235V50.8715H268.341V60.0625H266.625L266.612 59.6855C266.49 59.7548 266.33 59.8328 266.131 59.9195C265.94 59.9975 265.736 60.0625 265.52 60.1145C265.303 60.1752 265.091 60.2055 264.883 60.2055ZM265.325 58.7495C265.481 58.7495 265.637 58.7322 265.793 58.6975C265.957 58.6628 266.109 58.6238 266.248 58.5805C266.395 58.5285 266.512 58.4808 266.599 58.4375V54.9405C266.521 54.9232 266.417 54.9102 266.287 54.9015C266.157 54.8842 266.022 54.8712 265.884 54.8625C265.745 54.8452 265.619 54.8365 265.507 54.8365C265.169 54.8365 264.904 54.9145 264.714 55.0705C264.532 55.2265 264.402 55.4562 264.324 55.7595C264.246 56.0542 264.207 56.4138 264.207 56.8385C264.207 57.2112 264.233 57.5232 264.285 57.7745C264.337 58.0172 264.41 58.2122 264.506 58.3595C264.61 58.4982 264.731 58.5978 264.87 58.6585C265.008 58.7192 265.16 58.7495 265.325 58.7495ZM272.643 63.0395C271.949 63.0395 271.369 62.9875 270.901 62.8835C270.441 62.7795 270.095 62.5888 269.861 62.3115C269.627 62.0428 269.51 61.6528 269.51 61.1415C269.51 60.9162 269.54 60.7125 269.601 60.5305C269.67 60.3572 269.774 60.1925 269.913 60.0365C270.06 59.8805 270.242 59.7202 270.459 59.5555C270.337 59.4688 270.238 59.3432 270.16 59.1785C270.09 59.0052 270.056 58.8188 270.056 58.6195C270.056 58.5155 270.116 58.3638 270.238 58.1645C270.368 57.9565 270.493 57.7745 270.615 57.6185C270.441 57.5405 270.277 57.4278 270.121 57.2805C269.965 57.1245 269.835 56.9165 269.731 56.6565C269.635 56.3965 269.588 56.0628 269.588 55.6555C269.588 54.8322 269.822 54.2515 270.29 53.9135C270.766 53.5668 271.442 53.3935 272.318 53.3935C272.543 53.3935 272.786 53.4108 273.046 53.4455C273.306 53.4802 273.514 53.5148 273.67 53.5495L275.789 53.5105V54.6805L274.801 54.6675C274.879 54.7715 274.948 54.9058 275.009 55.0705C275.078 55.2265 275.113 55.4215 275.113 55.6555C275.113 56.2535 275.009 56.7172 274.801 57.0465C274.601 57.3758 274.298 57.6055 273.891 57.7355C273.483 57.8568 272.968 57.9175 272.344 57.9175C272.274 57.9175 272.179 57.9132 272.058 57.9045C271.936 57.8872 271.837 57.8742 271.759 57.8655C271.724 57.9522 271.689 58.0518 271.655 58.1645C271.62 58.2685 271.603 58.3422 271.603 58.3855C271.603 58.4982 271.637 58.5848 271.707 58.6455C271.785 58.7062 271.936 58.7495 272.162 58.7755C272.396 58.7928 272.747 58.8015 273.215 58.8015C273.83 58.8015 274.32 58.8578 274.684 58.9705C275.056 59.0832 275.321 59.2825 275.477 59.5685C275.633 59.8545 275.711 60.2575 275.711 60.7775C275.711 61.5488 275.438 62.1165 274.892 62.4805C274.354 62.8532 273.605 63.0395 272.643 63.0395ZM272.552 61.7525C273.089 61.7525 273.475 61.6875 273.709 61.5575C273.951 61.4362 274.073 61.2325 274.073 60.9465C274.073 60.7212 274.029 60.5565 273.943 60.4525C273.865 60.3485 273.73 60.2792 273.54 60.2445C273.349 60.2185 273.089 60.2055 272.76 60.2055C272.673 60.2055 272.569 60.2012 272.448 60.1925C272.326 60.1925 272.201 60.1882 272.071 60.1795C271.949 60.1795 271.837 60.1752 271.733 60.1665C271.637 60.1578 271.568 60.1535 271.525 60.1535C271.334 60.2835 271.204 60.4005 271.135 60.5045C271.065 60.6172 271.031 60.7645 271.031 60.9465C271.031 61.1458 271.078 61.3018 271.174 61.4145C271.269 61.5358 271.425 61.6225 271.642 61.6745C271.867 61.7265 272.17 61.7525 272.552 61.7525ZM272.331 56.6955C272.729 56.6955 273.011 56.6175 273.176 56.4615C273.349 56.2968 273.436 56.0282 273.436 55.6555C273.436 55.2828 273.349 55.0142 273.176 54.8495C273.011 54.6848 272.729 54.6025 272.331 54.6025C271.949 54.6025 271.672 54.6848 271.499 54.8495C271.334 55.0142 271.252 55.2828 271.252 55.6555C271.252 56.0282 271.334 56.2968 271.499 56.4615C271.672 56.6175 271.949 56.6955 272.331 56.6955ZM279.34 60.2055C278.621 60.2055 278.049 60.0842 277.624 59.8415C277.208 59.5988 276.909 59.2305 276.727 58.7365C276.545 58.2425 276.454 57.6228 276.454 56.8775C276.454 56.0715 276.567 55.4128 276.792 54.9015C277.026 54.3902 277.364 54.0132 277.806 53.7705C278.248 53.5192 278.794 53.3935 279.444 53.3935C280.406 53.3935 281.13 53.6362 281.615 54.1215C282.109 54.6068 282.356 55.3738 282.356 56.4225L282.278 57.3845H278.196C278.205 57.8698 278.305 58.2338 278.495 58.4765C278.686 58.7192 279.015 58.8405 279.483 58.8405C279.752 58.8405 280.047 58.8362 280.367 58.8275C280.688 58.8102 281.004 58.7928 281.316 58.7755C281.637 58.7582 281.91 58.7408 282.135 58.7235L282.174 59.9325C281.958 59.9672 281.685 60.0062 281.355 60.0495C281.026 60.0928 280.684 60.1275 280.328 60.1535C279.982 60.1882 279.652 60.2055 279.34 60.2055ZM278.196 56.2795H280.627C280.627 55.6902 280.532 55.2785 280.341 55.0445C280.159 54.8105 279.86 54.6935 279.444 54.6935C279.037 54.6935 278.725 54.8148 278.508 55.0575C278.3 55.3002 278.196 55.7075 278.196 56.2795ZM286.441 60.0625V51.1835H289.977C290.566 51.1835 291.073 51.2572 291.498 51.4045C291.923 51.5518 292.252 51.7902 292.486 52.1195C292.729 52.4402 292.85 52.8735 292.85 53.4195C292.85 53.7922 292.811 54.1085 292.733 54.3685C292.664 54.6198 292.551 54.8365 292.395 55.0185C292.248 55.1918 292.053 55.3522 291.81 55.4995C292.07 55.5948 292.295 55.7248 292.486 55.8895C292.685 56.0455 292.837 56.2578 292.941 56.5265C293.045 56.7865 293.097 57.1332 293.097 57.5665C293.097 58.0432 293.023 58.4418 292.876 58.7625C292.729 59.0832 292.516 59.3388 292.239 59.5295C291.97 59.7202 291.654 59.8588 291.29 59.9455C290.926 60.0235 290.527 60.0625 290.094 60.0625H286.441ZM288.235 58.7365H289.964C290.267 58.7365 290.519 58.7018 290.718 58.6325C290.926 58.5545 291.082 58.4202 291.186 58.2295C291.299 58.0388 291.355 57.7745 291.355 57.4365C291.355 57.1765 291.312 56.9642 291.225 56.7995C291.138 56.6348 291.026 56.5135 290.887 56.4355C290.748 56.3488 290.592 56.2882 290.419 56.2535C290.254 56.2188 290.09 56.2015 289.925 56.2015H288.235V58.7365ZM288.235 54.9275H289.912C290.354 54.9275 290.67 54.8235 290.861 54.6155C291.06 54.4075 291.16 54.0912 291.16 53.6665C291.16 53.2592 291.052 52.9645 290.835 52.7825C290.627 52.6005 290.298 52.5095 289.847 52.5095H288.235V54.9275ZM296 60.2055C295.324 60.2055 294.813 60.0365 294.466 59.6985C294.128 59.3518 293.959 58.8318 293.959 58.1385C293.959 57.6532 294.046 57.2762 294.219 57.0075C294.392 56.7302 294.648 56.5308 294.986 56.4095C295.333 56.2795 295.753 56.2015 296.247 56.1755L297.833 56.0325V55.6425C297.833 55.3305 297.755 55.1138 297.599 54.9925C297.443 54.8625 297.213 54.7975 296.91 54.7975C296.667 54.7975 296.386 54.8062 296.065 54.8235C295.753 54.8408 295.441 54.8625 295.129 54.8885C294.826 54.9145 294.561 54.9405 294.336 54.9665L294.284 53.7445C294.509 53.6925 294.778 53.6405 295.09 53.5885C295.411 53.5278 295.744 53.4802 296.091 53.4455C296.438 53.4108 296.758 53.3935 297.053 53.3935C297.608 53.3935 298.071 53.4628 298.444 53.6015C298.817 53.7402 299.098 53.9698 299.289 54.2905C299.48 54.6025 299.575 55.0272 299.575 55.5645V58.5415C299.592 58.6628 299.657 58.7582 299.77 58.8275C299.883 58.8882 300.013 58.9315 300.16 58.9575L300.121 60.1535C299.913 60.1622 299.709 60.1665 299.51 60.1665C299.311 60.1665 299.142 60.1535 299.003 60.1275C298.804 60.1015 298.63 60.0495 298.483 59.9715C298.344 59.8935 298.232 59.8112 298.145 59.7245C298.006 59.7852 297.82 59.8545 297.586 59.9325C297.352 60.0105 297.096 60.0755 296.819 60.1275C296.55 60.1795 296.277 60.2055 296 60.2055ZM296.416 58.9185C296.581 58.9185 296.754 58.9012 296.936 58.8665C297.118 58.8318 297.287 58.7928 297.443 58.7495C297.608 58.6975 297.738 58.6498 297.833 58.6065V57.1115L296.507 57.2285C296.221 57.2545 296.013 57.3412 295.883 57.4885C295.762 57.6272 295.701 57.8265 295.701 58.0865C295.701 58.3465 295.757 58.5502 295.87 58.6975C295.991 58.8448 296.173 58.9185 296.416 58.9185ZM303.455 60.2055C303.169 60.2055 302.861 60.1882 302.532 60.1535C302.211 60.1275 301.908 60.0928 301.622 60.0495C301.344 60.0062 301.106 59.9628 300.907 59.9195L300.959 58.6325C301.184 58.6585 301.435 58.6888 301.713 58.7235C301.999 58.7582 302.276 58.7885 302.545 58.8145C302.822 58.8318 303.047 58.8405 303.221 58.8405C303.481 58.8405 303.693 58.8188 303.858 58.7755C304.031 58.7322 304.161 58.6628 304.248 58.5675C304.334 58.4635 304.378 58.3162 304.378 58.1255C304.378 57.9782 304.339 57.8655 304.261 57.7875C304.191 57.7095 304.053 57.6445 303.845 57.5925C303.645 57.5318 303.351 57.4712 302.961 57.4105C302.475 57.3412 302.072 57.2415 301.752 57.1115C301.44 56.9815 301.21 56.7908 301.063 56.5395C300.915 56.2795 300.842 55.9285 300.842 55.4865C300.842 54.9492 300.959 54.5288 301.193 54.2255C301.427 53.9222 301.739 53.7098 302.129 53.5885C302.519 53.4585 302.943 53.3935 303.403 53.3935C303.706 53.3935 304.018 53.4108 304.339 53.4455C304.659 53.4715 304.963 53.5062 305.249 53.5495C305.535 53.5928 305.773 53.6362 305.964 53.6795L305.912 54.9925C305.695 54.9578 305.444 54.9275 305.158 54.9015C304.872 54.8668 304.586 54.8408 304.3 54.8235C304.022 54.8062 303.788 54.7975 303.598 54.7975C303.398 54.7975 303.221 54.8192 303.065 54.8625C302.909 54.8972 302.787 54.9578 302.701 55.0445C302.623 55.1312 302.584 55.2612 302.584 55.4345C302.584 55.5558 302.618 55.6555 302.688 55.7335C302.757 55.8115 302.887 55.8808 303.078 55.9415C303.277 55.9935 303.563 56.0455 303.936 56.0975C304.473 56.1755 304.902 56.2838 305.223 56.4225C305.543 56.5612 305.773 56.7605 305.912 57.0205C306.059 57.2805 306.133 57.6315 306.133 58.0735C306.133 58.8622 305.899 59.4168 305.431 59.7375C304.971 60.0495 304.313 60.2055 303.455 60.2055ZM309.911 60.2055C309.191 60.2055 308.619 60.0842 308.195 59.8415C307.779 59.5988 307.48 59.2305 307.298 58.7365C307.116 58.2425 307.025 57.6228 307.025 56.8775C307.025 56.0715 307.137 55.4128 307.363 54.9015C307.597 54.3902 307.935 54.0132 308.377 53.7705C308.819 53.5192 309.365 53.3935 310.015 53.3935C310.977 53.3935 311.7 53.6362 312.186 54.1215C312.68 54.6068 312.927 55.3738 312.927 56.4225L312.849 57.3845H308.767C308.775 57.8698 308.875 58.2338 309.066 58.4765C309.256 58.7192 309.586 58.8405 310.054 58.8405C310.322 58.8405 310.617 58.8362 310.938 58.8275C311.258 58.8102 311.575 58.7928 311.887 58.7755C312.207 58.7582 312.48 58.7408 312.706 58.7235L312.745 59.9325C312.528 59.9672 312.255 60.0062 311.926 60.0495C311.596 60.0928 311.254 60.1275 310.899 60.1535C310.552 60.1882 310.223 60.2055 309.911 60.2055ZM308.767 56.2795H311.198C311.198 55.6902 311.102 55.2785 310.912 55.0445C310.73 54.8105 310.431 54.6935 310.015 54.6935C309.607 54.6935 309.295 54.8148 309.079 55.0575C308.871 55.3002 308.767 55.7075 308.767 56.2795Z" fill="#D0F83E"/>
<path d="M1.092 85.0625V76.0795H4.381C5.03967 76.0795 5.58133 76.1878 6.006 76.4045C6.43067 76.6125 6.747 76.9332 6.955 77.3665C7.163 77.7912 7.267 78.3328 7.267 78.9915C7.267 79.6415 7.163 80.1962 6.955 80.6555C6.747 81.1062 6.43067 81.4528 6.006 81.6955C5.58133 81.9295 5.03967 82.0465 4.381 82.0465H2.132V85.0625H1.092ZM2.132 81.1365H4.381C5.02233 81.1365 5.486 80.9502 5.772 80.5775C6.058 80.2048 6.201 79.6762 6.201 78.9915C6.201 78.2982 6.058 77.7912 5.772 77.4705C5.486 77.1498 5.02233 76.9895 4.381 76.9895H2.132V81.1365ZM10.0464 85.1925C9.44836 85.1925 8.99336 85.0235 8.68136 84.6855C8.36936 84.3475 8.21336 83.8535 8.21336 83.2035C8.21336 82.7788 8.28703 82.4322 8.43436 82.1635C8.58169 81.8948 8.80269 81.6912 9.09736 81.5525C9.40069 81.4052 9.77336 81.3142 10.2154 81.2795L12.2174 81.0845V80.5255C12.2174 80.0835 12.1177 79.7715 11.9184 79.5895C11.7277 79.4075 11.4417 79.3165 11.0604 79.3165C10.8437 79.3165 10.5837 79.3252 10.2804 79.3425C9.98569 79.3598 9.69103 79.3815 9.39636 79.4075C9.10169 79.4335 8.84169 79.4595 8.61636 79.4855L8.56436 78.7185C8.77236 78.6752 9.02369 78.6318 9.31836 78.5885C9.61303 78.5452 9.92069 78.5105 10.2414 78.4845C10.562 78.4498 10.8567 78.4325 11.1254 78.4325C11.6194 78.4325 12.0224 78.5105 12.3344 78.6665C12.6464 78.8138 12.8717 79.0435 13.0104 79.3555C13.1577 79.6588 13.2314 80.0488 13.2314 80.5255V83.8145C13.2487 84.0052 13.3224 84.1438 13.4524 84.2305C13.591 84.3172 13.7644 84.3735 13.9724 84.3995L13.9334 85.1925C13.7427 85.1925 13.5694 85.1795 13.4134 85.1535C13.2574 85.1362 13.11 85.1058 12.9714 85.0625C12.8587 85.0192 12.7504 84.9672 12.6464 84.9065C12.551 84.8458 12.4557 84.7722 12.3604 84.6855C12.1957 84.7548 11.9834 84.8285 11.7234 84.9065C11.472 84.9845 11.199 85.0495 10.9044 85.1015C10.6184 85.1622 10.3324 85.1925 10.0464 85.1925ZM10.2154 84.3475C10.4494 84.3475 10.692 84.3258 10.9434 84.2825C11.1947 84.2392 11.433 84.1872 11.6584 84.1265C11.8837 84.0658 12.07 84.0095 12.2174 83.9575V81.8385L10.3324 82.0205C9.94236 82.0552 9.66069 82.1678 9.48736 82.3585C9.32269 82.5492 9.24036 82.8222 9.24036 83.1775C9.24036 83.5415 9.32269 83.8275 9.48736 84.0355C9.65203 84.2435 9.89469 84.3475 10.2154 84.3475ZM17.2868 85.2055C16.8361 85.2055 16.4764 85.1362 16.2078 84.9975C15.9478 84.8588 15.7614 84.6205 15.6488 84.2825C15.5361 83.9358 15.4798 83.4505 15.4798 82.8265V79.4335H14.5568V78.5625H15.4798V76.5735H16.4808V78.5625H18.5218V79.4335H16.4808V82.5275C16.4808 82.9868 16.4981 83.3465 16.5328 83.6065C16.5761 83.8578 16.6628 84.0355 16.7928 84.1395C16.9228 84.2435 17.1264 84.2955 17.4038 84.2955C17.4904 84.2955 17.6031 84.2912 17.7418 84.2825C17.8804 84.2738 18.0191 84.2652 18.1578 84.2565C18.3051 84.2392 18.4351 84.2262 18.5478 84.2175L18.6128 85.0625C18.4221 85.0885 18.1968 85.1188 17.9368 85.1535C17.6768 85.1882 17.4601 85.2055 17.2868 85.2055ZM22.0134 85.1925C21.3634 85.1925 20.8477 85.0668 20.4664 84.8155C20.0937 84.5642 19.825 84.1915 19.6604 83.6975C19.4957 83.2035 19.4134 82.5882 19.4134 81.8515C19.4134 81.0282 19.526 80.3695 19.7514 79.8755C19.9767 79.3728 20.293 79.0088 20.7004 78.7835C21.1077 78.5495 21.5887 78.4325 22.1434 78.4325C23.01 78.4325 23.6644 78.6752 24.1064 79.1605C24.5484 79.6372 24.7694 80.4085 24.7694 81.4745L24.7174 82.2415H20.4404C20.449 82.9175 20.5747 83.4288 20.8174 83.7755C21.06 84.1222 21.4977 84.2955 22.1304 84.2955C22.373 84.2955 22.6374 84.2912 22.9234 84.2825C23.218 84.2652 23.5084 84.2478 23.7944 84.2305C24.0804 84.2132 24.323 84.1958 24.5224 84.1785L24.5484 84.9715C24.3404 85.0062 24.0847 85.0408 23.7814 85.0755C23.4867 85.1102 23.1834 85.1362 22.8714 85.1535C22.5594 85.1795 22.2734 85.1925 22.0134 85.1925ZM20.4404 81.4225H23.7554C23.7554 80.6252 23.6254 80.0705 23.3654 79.7585C23.114 79.4378 22.7067 79.2775 22.1434 79.2775C21.5974 79.2775 21.177 79.4422 20.8824 79.7715C20.5877 80.1008 20.4404 80.6512 20.4404 81.4225ZM26.2758 85.0625V78.5625H27.2768V79.0175C27.4242 78.9308 27.6062 78.8442 27.8228 78.7575C28.0482 78.6708 28.2865 78.5972 28.5378 78.5365C28.7892 78.4672 29.0318 78.4325 29.2658 78.4325C29.8638 78.4325 30.3188 78.5408 30.6308 78.7575C30.9515 78.9655 31.1725 79.3035 31.2938 79.7715C31.4152 80.2395 31.4758 80.8548 31.4758 81.6175V85.0625H30.4618V81.6565C30.4618 81.0932 30.4272 80.6425 30.3578 80.3045C30.2972 79.9665 30.1672 79.7238 29.9678 79.5765C29.7772 79.4205 29.4825 79.3425 29.0838 79.3425C28.8672 79.3425 28.6418 79.3685 28.4078 79.4205C28.1825 79.4638 27.9702 79.5245 27.7708 79.6025C27.5715 79.6718 27.4068 79.7412 27.2768 79.8105V85.0625H26.2758ZM35.403 85.2055C34.9523 85.2055 34.5926 85.1362 34.324 84.9975C34.064 84.8588 33.8776 84.6205 33.765 84.2825C33.6523 83.9358 33.596 83.4505 33.596 82.8265V79.4335H32.673V78.5625H33.596V76.5735H34.597V78.5625H36.638V79.4335H34.597V82.5275C34.597 82.9868 34.6143 83.3465 34.649 83.6065C34.6923 83.8578 34.779 84.0355 34.909 84.1395C35.039 84.2435 35.2426 84.2955 35.52 84.2955C35.6066 84.2955 35.7193 84.2912 35.858 84.2825C35.9966 84.2738 36.1353 84.2652 36.274 84.2565C36.4213 84.2392 36.5513 84.2262 36.664 84.2175L36.729 85.0625C36.5383 85.0885 36.313 85.1188 36.053 85.1535C35.793 85.1882 35.5763 85.2055 35.403 85.2055ZM40.841 85.0625V76.0795H42.778L46.158 84.1395H46.418V76.0795H47.458V85.0625H45.56L42.128 77.0025H41.881V85.0625H40.841ZM51.9789 85.1925C51.2509 85.1925 50.6832 85.0668 50.2759 84.8155C49.8772 84.5642 49.5955 84.1828 49.4309 83.6715C49.2749 83.1602 49.1969 82.5145 49.1969 81.7345C49.1969 80.9892 49.2835 80.3738 49.4569 79.8885C49.6389 79.4032 49.9335 79.0392 50.3409 78.7965C50.7482 78.5538 51.2942 78.4325 51.9789 78.4325C52.6722 78.4325 53.2225 78.5538 53.6299 78.7965C54.0372 79.0392 54.3275 79.4032 54.5009 79.8885C54.6829 80.3738 54.7739 80.9892 54.7739 81.7345C54.7739 82.5145 54.6915 83.1602 54.5269 83.6715C54.3709 84.1828 54.0892 84.5642 53.6819 84.8155C53.2832 85.0668 52.7155 85.1925 51.9789 85.1925ZM51.9789 84.3215C52.4815 84.3215 52.8585 84.2348 53.1099 84.0615C53.3612 83.8795 53.5259 83.5978 53.6039 83.2165C53.6905 82.8352 53.7339 82.3412 53.7339 81.7345C53.7339 81.1365 53.6819 80.6598 53.5779 80.3045C53.4739 79.9492 53.2962 79.6935 53.0449 79.5375C52.7935 79.3815 52.4382 79.3035 51.9789 79.3035C51.5282 79.3035 51.1729 79.3815 50.9129 79.5375C50.6615 79.6935 50.4839 79.9492 50.3799 80.3045C50.2759 80.6598 50.2239 81.1365 50.2239 81.7345C50.2239 82.3412 50.2629 82.8352 50.3409 83.2165C50.4275 83.5978 50.5965 83.8795 50.8479 84.0615C51.0992 84.2348 51.4762 84.3215 51.9789 84.3215ZM56.2987 85.0625V83.5415H57.4037V85.0625H56.2987ZM65.1452 85.0625V77.6395L62.9612 79.0955L62.4802 78.3025L65.2102 76.4825H66.1852V85.0625H65.1452ZM72.4196 85.0625V77.6395L70.2356 79.0955L69.7546 78.3025L72.4846 76.4825H73.4596V85.0625H72.4196ZM76.1061 86.6615L76.6911 83.6455H77.8221L76.9381 86.6615H76.1061ZM79.481 85.0625V84.1785L81.951 81.5915C82.3063 81.2188 82.614 80.8852 82.874 80.5905C83.134 80.2872 83.3333 79.9925 83.472 79.7065C83.6107 79.4118 83.68 79.0998 83.68 78.7705C83.68 78.2072 83.524 77.8215 83.212 77.6135C82.9087 77.3968 82.4493 77.2885 81.834 77.2885C81.6087 77.2885 81.3573 77.3058 81.08 77.3405C80.8027 77.3665 80.534 77.4012 80.274 77.4445C80.0227 77.4792 79.806 77.5182 79.624 77.5615L79.546 76.7035C79.728 76.6515 79.9533 76.5995 80.222 76.5475C80.4907 76.4955 80.781 76.4522 81.093 76.4175C81.4137 76.3742 81.7257 76.3525 82.029 76.3525C82.939 76.3525 83.6193 76.5345 84.07 76.8985C84.5293 77.2625 84.759 77.8475 84.759 78.6535C84.759 79.0782 84.6897 79.4595 84.551 79.7975C84.421 80.1355 84.2217 80.4692 83.953 80.7985C83.693 81.1192 83.3593 81.4788 82.952 81.8775L80.703 84.1525H84.967V85.0625H79.481ZM89.5764 85.1925C88.5017 85.1925 87.7174 84.7982 87.2234 84.0095C86.7381 83.2122 86.4954 82.1202 86.4954 80.7335C86.4954 79.9535 86.5734 79.2862 86.7294 78.7315C86.8854 78.1768 87.1107 77.7262 87.4054 77.3795C87.7001 77.0242 88.0554 76.7642 88.4714 76.5995C88.8874 76.4348 89.3511 76.3525 89.8624 76.3525C90.1311 76.3525 90.4127 76.3655 90.7074 76.3915C91.0021 76.4175 91.2837 76.4478 91.5524 76.4825C91.8211 76.5172 92.0464 76.5518 92.2284 76.5865L92.1244 77.4185C91.9597 77.4012 91.7474 77.3838 91.4874 77.3665C91.2361 77.3405 90.9674 77.3188 90.6814 77.3015C90.4041 77.2842 90.1311 77.2755 89.8624 77.2755C89.1257 77.2755 88.5624 77.5268 88.1724 78.0295C87.7824 78.5322 87.5831 79.2515 87.5744 80.1875C87.6524 80.1702 87.7651 80.1355 87.9124 80.0835C88.0684 80.0315 88.2461 79.9752 88.4454 79.9145C88.6534 79.8538 88.8657 79.8018 89.0824 79.7585C89.2991 79.7152 89.5071 79.6935 89.7064 79.6935C90.6511 79.6935 91.3661 79.9102 91.8514 80.3435C92.3367 80.7768 92.5794 81.4485 92.5794 82.3585C92.5794 82.9652 92.4624 83.4808 92.2284 83.9055C91.9944 84.3302 91.6521 84.6508 91.2014 84.8675C90.7594 85.0842 90.2177 85.1925 89.5764 85.1925ZM89.5764 84.2695C90.2004 84.2695 90.6771 84.1048 91.0064 83.7755C91.3444 83.4462 91.5134 82.9738 91.5134 82.3585C91.5134 81.7692 91.3444 81.3315 91.0064 81.0455C90.6771 80.7595 90.2177 80.6165 89.6284 80.6165C89.3944 80.6165 89.1474 80.6425 88.8874 80.6945C88.6274 80.7465 88.3804 80.8115 88.1464 80.8895C87.9124 80.9588 87.7174 81.0282 87.5614 81.0975C87.5701 81.6955 87.6394 82.2372 87.7694 82.7225C87.8994 83.1992 88.1117 83.5762 88.4064 83.8535C88.7011 84.1308 89.0911 84.2695 89.5764 84.2695ZM96.7988 85.1795C96.4781 85.1795 96.1401 85.1578 95.7848 85.1145C95.4295 85.0712 95.0871 85.0235 94.7578 84.9715C94.4371 84.9108 94.1685 84.8545 93.9518 84.8025L94.0688 83.9705C94.2855 84.0052 94.5455 84.0485 94.8488 84.1005C95.1521 84.1438 95.4641 84.1828 95.7848 84.2175C96.1141 84.2435 96.4175 84.2565 96.6948 84.2565C97.2841 84.2565 97.7478 84.0875 98.0858 83.7495C98.4325 83.4115 98.6058 82.9218 98.6058 82.2805C98.6058 81.8472 98.5321 81.5092 98.3848 81.2665C98.2375 81.0152 98.0295 80.8375 97.7608 80.7335C97.4921 80.6295 97.1801 80.5775 96.8248 80.5775C96.5648 80.5775 96.3048 80.6035 96.0448 80.6555C95.7848 80.7075 95.5465 80.7725 95.3298 80.8505C95.1131 80.9285 94.9355 81.0065 94.7968 81.0845L94.0948 80.9415L94.3288 76.4825H99.3338V77.4185H95.1868L94.9528 80.1615C95.1001 80.0922 95.2821 80.0185 95.4988 79.9405C95.7155 79.8625 95.9495 79.7975 96.2008 79.7455C96.4521 79.6848 96.6991 79.6545 96.9418 79.6545C97.5051 79.6545 97.9905 79.7412 98.3978 79.9145C98.8051 80.0792 99.1215 80.3478 99.3468 80.7205C99.5721 81.0845 99.6848 81.5742 99.6848 82.1895C99.6848 82.8482 99.5678 83.3985 99.3338 83.8405C99.1085 84.2825 98.7791 84.6162 98.3458 84.8415C97.9211 85.0668 97.4055 85.1795 96.7988 85.1795ZM100.849 86.6615L101.434 83.6455H102.565L101.681 86.6615H100.849ZM106.941 85.1925C106.612 85.1925 106.269 85.1708 105.914 85.1275C105.559 85.0928 105.225 85.0495 104.913 84.9975C104.601 84.9455 104.341 84.8935 104.133 84.8415L104.224 83.9965C104.423 84.0312 104.67 84.0702 104.965 84.1135C105.26 84.1568 105.572 84.1958 105.901 84.2305C106.23 84.2565 106.542 84.2695 106.837 84.2695C107.461 84.2695 107.92 84.1352 108.215 83.8665C108.518 83.5892 108.67 83.1818 108.67 82.6445C108.67 82.2545 108.592 81.9468 108.436 81.7215C108.28 81.4962 108.068 81.3315 107.799 81.2275C107.539 81.1235 107.249 81.0672 106.928 81.0585H105.199V80.1615H106.928C107.145 80.1615 107.37 80.1008 107.604 79.9795C107.847 79.8582 108.05 79.6848 108.215 79.4595C108.38 79.2255 108.462 78.9482 108.462 78.6275C108.462 78.1422 108.328 77.7955 108.059 77.5875C107.799 77.3708 107.357 77.2625 106.733 77.2625C106.447 77.2625 106.152 77.2798 105.849 77.3145C105.554 77.3405 105.273 77.3752 105.004 77.4185C104.744 77.4532 104.527 77.4922 104.354 77.5355L104.263 76.7035C104.436 76.6515 104.657 76.5995 104.926 76.5475C105.203 76.4868 105.502 76.4392 105.823 76.4045C106.144 76.3612 106.46 76.3395 106.772 76.3395C107.457 76.3395 107.998 76.4218 108.397 76.5865C108.804 76.7425 109.095 76.9852 109.268 77.3145C109.45 77.6438 109.541 78.0642 109.541 78.5755C109.541 78.9048 109.489 79.1865 109.385 79.4205C109.281 79.6458 109.155 79.8365 109.008 79.9925C108.861 80.1398 108.718 80.2568 108.579 80.3435C108.44 80.4302 108.336 80.4952 108.267 80.5385C108.562 80.6425 108.817 80.7682 109.034 80.9155C109.259 81.0542 109.433 81.2578 109.554 81.5265C109.684 81.7865 109.749 82.1462 109.749 82.6055C109.749 83.1862 109.649 83.6672 109.45 84.0485C109.259 84.4298 108.956 84.7158 108.54 84.9065C108.124 85.0972 107.591 85.1925 106.941 85.1925ZM115.256 85.0625V83.3985H111.122V82.5925L113.553 76.4825H114.697L112.214 82.4755H115.256V79.8235H116.296V82.4755H117.375V83.3985H116.296V85.0625H115.256ZM121.49 85.1925C121.161 85.1925 120.818 85.1708 120.463 85.1275C120.108 85.0928 119.774 85.0495 119.462 84.9975C119.15 84.9455 118.89 84.8935 118.682 84.8415L118.773 83.9965C118.972 84.0312 119.219 84.0702 119.514 84.1135C119.809 84.1568 120.121 84.1958 120.45 84.2305C120.779 84.2565 121.091 84.2695 121.386 84.2695C122.01 84.2695 122.469 84.1352 122.764 83.8665C123.067 83.5892 123.219 83.1818 123.219 82.6445C123.219 82.2545 123.141 81.9468 122.985 81.7215C122.829 81.4962 122.617 81.3315 122.348 81.2275C122.088 81.1235 121.798 81.0672 121.477 81.0585H119.748V80.1615H121.477C121.694 80.1615 121.919 80.1008 122.153 79.9795C122.396 79.8582 122.599 79.6848 122.764 79.4595C122.929 79.2255 123.011 78.9482 123.011 78.6275C123.011 78.1422 122.877 77.7955 122.608 77.5875C122.348 77.3708 121.906 77.2625 121.282 77.2625C120.996 77.2625 120.701 77.2798 120.398 77.3145C120.103 77.3405 119.822 77.3752 119.553 77.4185C119.293 77.4532 119.076 77.4922 118.903 77.5355L118.812 76.7035C118.985 76.6515 119.206 76.5995 119.475 76.5475C119.752 76.4868 120.051 76.4392 120.372 76.4045C120.693 76.3612 121.009 76.3395 121.321 76.3395C122.006 76.3395 122.547 76.4218 122.946 76.5865C123.353 76.7425 123.644 76.9852 123.817 77.3145C123.999 77.6438 124.09 78.0642 124.09 78.5755C124.09 78.9048 124.038 79.1865 123.934 79.4205C123.83 79.6458 123.704 79.8365 123.557 79.9925C123.41 80.1398 123.267 80.2568 123.128 80.3435C122.989 80.4302 122.885 80.4952 122.816 80.5385C123.111 80.6425 123.366 80.7682 123.583 80.9155C123.808 81.0542 123.982 81.2578 124.103 81.5265C124.233 81.7865 124.298 82.1462 124.298 82.6055C124.298 83.1862 124.198 83.6672 123.999 84.0485C123.808 84.4298 123.505 84.7158 123.089 84.9065C122.673 85.0972 122.14 85.1925 121.49 85.1925Z" fill="white"/>
</svg>
