<svg width="296" height="49" viewBox="0 0 296 49" fill="none" xmlns="http://www.w3.org/2000/svg">
<g clip-path="url(#clip0_75_3556)">
<path d="M48.2729 15.7962C46.5539 14.9663 44.7459 14.4032 42.849 14.1068C42.7897 14.0475 42.7601 14.0475 42.7601 14.1068C42.523 14.5217 42.2858 14.996 42.0487 15.5295C40.0333 15.1738 38.0178 15.1738 36.0024 15.5295C35.7653 15.0552 35.5281 14.581 35.291 14.1068C35.291 14.0475 35.2614 14.0475 35.2021 14.1068C33.3052 14.4032 31.4972 14.9663 29.7782 15.7962C28.1184 18.2859 26.9625 20.8349 26.3104 23.4431C25.7176 25.8142 25.5398 28.3335 25.7769 31.001H25.8658C27.8813 32.5423 30.1042 33.6685 32.5346 34.3799C32.5346 34.3799 32.5642 34.3799 32.6235 34.3799C33.0977 33.6685 33.5423 32.9276 33.9573 32.157C33.9573 32.0977 33.9573 32.068 33.9573 32.068H33.8684C33.157 31.7716 32.4753 31.416 31.8233 31.001C31.764 31.001 31.764 30.9714 31.8233 30.9121L32.2679 30.5565H32.3568C34.4908 31.5642 36.7137 32.068 39.0256 32.068C41.3374 32.068 43.5603 31.5642 45.6943 30.5565C45.7536 30.5565 45.7832 30.5565 45.7832 30.5565L46.2278 30.9121V31.001C45.5758 31.416 44.8644 31.7716 44.0938 32.068V32.157C44.5088 32.9276 44.9534 33.6685 45.4276 34.3799C45.4869 34.3799 45.5165 34.3799 45.5165 34.3799C47.9469 33.6685 50.1698 32.5423 52.1853 31.001H52.2742C52.8077 25.4882 51.4739 20.4199 48.2729 15.7962ZM34.5797 27.9779C33.9276 27.9779 33.3645 27.7111 32.8903 27.1776C32.4161 26.6441 32.1789 26.0069 32.1789 25.2659C32.1789 24.5249 32.4161 23.8877 32.8903 23.3542C33.3645 22.8207 33.9425 22.5539 34.6242 22.5539C35.3059 22.5539 35.869 22.8207 36.3136 23.3542C36.7582 23.8877 36.9805 24.5249 36.9805 25.2659C36.9805 26.0069 36.7433 26.6441 36.2691 27.1776C35.7949 27.7111 35.2318 27.9779 34.5797 27.9779ZM43.4714 27.9779C42.8193 27.9779 42.2562 27.7111 41.782 27.1776C41.3078 26.6441 41.0706 26.0069 41.0706 25.2659C41.0706 24.5249 41.3078 23.8877 41.782 23.3542C42.2562 22.8207 42.8193 22.5539 43.4714 22.5539C44.1235 22.5539 44.6866 22.8207 45.1608 23.3542C45.6351 23.8877 45.8722 24.5249 45.8722 25.2659C45.8722 26.0069 45.6351 26.6441 45.1608 27.1776C44.6866 27.7111 44.1235 27.9779 43.4714 27.9779Z" fill="#D0F83E"/>
</g>
<g clip-path="url(#clip1_75_3556)">
<g clip-path="url(#clip2_75_3556)">
<path d="M72.1013 10.0629L67.3887 14.8644V31.9365H73.0794V36.738L77.8809 31.9365H81.6154L90.2404 23.4005V10.0629H72.1013ZM88.2842 22.4224L84.5497 26.2458H80.7262L77.3474 29.6247V26.2458H73.0794V11.9302H88.2842V22.4224ZM85.4388 15.309H83.5716V20.9997H85.4388V15.309ZM80.1927 15.309H78.3255V20.9997H80.1927V15.309Z" fill="#D0F83E"/>
</g>
</g>
<g clip-path="url(#clip3_75_3556)">
<g clip-path="url(#clip4_75_3556)">
<path d="M139.739 23.4894C139.739 21.059 139.146 18.8213 137.96 16.7762C136.775 14.7311 135.159 13.1009 133.114 11.8857C131.069 10.6705 128.831 10.0629 126.401 10.0629C123.971 10.0629 121.733 10.6705 119.688 11.8857C117.643 13.1009 116.027 14.7311 114.842 16.7762C113.656 18.8213 113.063 21.059 113.063 23.4894C113.063 25.6827 113.553 27.7278 114.531 29.6247C115.509 31.5216 116.857 33.0924 118.576 34.3373C120.295 35.5821 122.222 36.3824 124.356 36.738V27.4017H120.888V23.4894H124.356V20.5551C124.356 18.8953 124.801 17.6061 125.69 16.6872C126.579 15.7684 127.794 15.309 129.335 15.309C129.928 15.309 130.61 15.3387 131.38 15.3979L132.358 15.5758V18.8657H130.669C129.898 18.8657 129.335 19.0584 128.98 19.4437C128.624 19.829 128.446 20.3477 128.446 20.9997V23.4894H132.181L131.558 27.4017H128.446V36.738C130.58 36.3824 132.507 35.5821 134.226 34.3373C135.945 33.0924 137.293 31.5216 138.271 29.6247C139.25 27.7278 139.739 25.6827 139.739 23.4894Z" fill="#D0F83E"/>
</g>
</g>
<g clip-path="url(#clip5_75_3556)">
<g clip-path="url(#clip6_75_3556)">
<path d="M165.057 36.1035C168.258 36.1035 171.103 35.3033 173.593 33.7028C175.846 32.2208 177.594 30.2646 178.839 27.8342C180.025 25.4631 180.618 23.0327 180.618 20.543V19.8317C181.685 19.0611 182.603 18.1126 183.374 16.9864C182.366 17.4606 181.329 17.757 180.262 17.8755C181.447 17.1642 182.248 16.1565 182.663 14.8523C181.536 15.5044 180.38 15.949 179.195 16.1861C178.306 15.2969 177.254 14.7486 176.038 14.5411C174.823 14.3337 173.667 14.5263 172.571 15.1191C171.474 15.7119 170.674 16.5714 170.17 17.6977C169.666 18.824 169.562 19.9799 169.859 21.1655C167.665 21.0469 165.576 20.4986 163.59 19.5205C161.604 18.5424 159.93 17.1938 158.566 15.4748C157.855 16.7196 157.662 18.0385 157.988 19.4316C158.314 20.8246 159.07 21.9361 160.256 22.766C159.366 22.7067 158.536 22.4696 157.766 22.0546V22.1435C157.766 23.4477 158.181 24.6036 159.011 25.6113C159.841 26.619 160.878 27.2415 162.123 27.4786C161.649 27.6564 161.174 27.7453 160.7 27.7453C160.344 27.7453 160.018 27.7157 159.722 27.6564C160.078 28.7234 160.715 29.6126 161.634 30.3239C162.553 31.0352 163.605 31.3909 164.79 31.3909C163.842 32.1615 162.775 32.7543 161.589 33.1693C160.404 33.5842 159.218 33.7917 158.033 33.7917C157.558 33.7917 157.114 33.762 156.699 33.7028C159.248 35.3033 162.034 36.1035 165.057 36.1035Z" fill="#D0F83E"/>
</g>
</g>
<g clip-path="url(#clip7_75_3556)">
<g clip-path="url(#clip8_75_3556)">
<path d="M214.077 10.0629C211.587 10.0629 209.735 10.0926 208.519 10.1518C207.304 10.2111 206.252 10.4186 205.363 10.7743C204.474 11.1299 203.688 11.6486 203.007 12.3303C202.325 13.012 201.806 13.7974 201.451 14.6866C201.095 15.5758 200.887 16.628 200.828 17.8432C200.769 19.0584 200.739 20.9108 200.739 23.4005C200.739 25.8902 200.769 27.7426 200.828 28.9578C200.887 30.173 201.095 31.2252 201.451 32.1144C201.806 33.0035 202.325 33.789 203.007 34.4707C203.688 35.1523 204.474 35.671 205.363 36.0267C206.252 36.3824 207.304 36.5898 208.519 36.6491C209.735 36.7084 211.587 36.738 214.077 36.738C216.566 36.738 218.419 36.7084 219.634 36.6491C220.849 36.5898 221.902 36.3824 222.791 36.0267C223.68 35.671 224.465 35.1523 225.147 34.4707C225.829 33.789 226.347 33.0035 226.703 32.1144C227.059 31.2252 227.266 30.173 227.325 28.9578C227.385 27.7426 227.414 25.8902 227.414 23.4005C227.414 20.9108 227.385 19.0584 227.325 17.8432C227.266 16.628 227.059 15.5758 226.703 14.6866C226.347 13.7974 225.829 13.012 225.147 12.3303C224.465 11.6486 223.68 11.1299 222.791 10.7743C221.902 10.4186 220.849 10.2111 219.634 10.1518C218.419 10.0926 216.566 10.0629 214.077 10.0629ZM212.921 12.4637H214.077C216.566 12.4637 218.374 12.4933 219.501 12.5526C220.449 12.6119 221.235 12.7601 221.857 12.9972C222.479 13.2343 223.013 13.5751 223.458 14.0197C223.902 14.4643 224.243 14.9978 224.48 15.6202C224.717 16.2427 224.865 17.0281 224.925 17.9765C224.984 19.1028 225.014 20.9108 225.014 23.4005C225.014 25.8902 224.984 27.6981 224.925 28.8244C224.865 29.7729 224.717 30.5583 224.48 31.1807C224.243 31.8031 223.902 32.3366 223.458 32.7812C223.013 33.2258 222.479 33.5667 221.857 33.8038C221.235 34.0409 220.449 34.1891 219.501 34.2484C218.315 34.3076 216.507 34.3373 214.077 34.3373C211.646 34.3373 209.838 34.3076 208.653 34.2484C207.704 34.1891 206.919 34.0409 206.297 33.8038C205.674 33.5667 205.141 33.2258 204.696 32.7812C204.251 32.3366 203.911 31.8031 203.674 31.1807C203.436 30.5583 203.288 29.7729 203.229 28.8244C203.17 27.6389 203.14 25.8161 203.14 23.356C203.14 20.896 203.17 19.1028 203.229 17.9765C203.288 17.0281 203.436 16.2427 203.674 15.6202C203.911 14.9978 204.251 14.4643 204.696 14.0197C205.141 13.5751 205.674 13.2343 206.297 12.9972C206.919 12.7601 207.734 12.6119 208.742 12.5526C209.75 12.4933 211.143 12.4637 212.921 12.4637ZM221.19 14.6866C220.775 14.6866 220.405 14.8348 220.079 15.1312C219.753 15.4276 219.59 15.7981 219.59 16.2427C219.59 16.6872 219.753 17.0725 220.079 17.3986C220.405 17.7246 220.79 17.8876 221.235 17.8876C221.679 17.8876 222.05 17.7246 222.346 17.3986C222.642 17.0725 222.791 16.6872 222.791 16.2427C222.791 15.7981 222.642 15.4276 222.346 15.1312C222.05 14.8348 221.664 14.6866 221.19 14.6866ZM214.077 16.5539C212.832 16.5539 211.676 16.8503 210.609 17.443C209.542 18.0358 208.697 18.8657 208.075 19.9327C207.452 20.9997 207.141 22.1556 207.141 23.4005C207.141 24.6453 207.452 25.8012 208.075 26.8682C208.697 27.9352 209.542 28.7651 210.609 29.3579C211.676 29.9507 212.832 30.2471 214.077 30.2471C215.322 30.2471 216.463 29.9359 217.5 29.3135C218.537 28.691 219.353 27.8612 219.945 26.8238C220.538 25.7864 220.835 24.6453 220.835 23.4005C220.835 22.1556 220.538 21.0145 219.945 19.9772C219.353 18.9398 218.537 18.1099 217.5 17.4875C216.463 16.8651 215.322 16.5539 214.077 16.5539ZM214.077 18.9546C214.847 18.9546 215.588 19.1473 216.3 19.5326C217.011 19.9179 217.559 20.4662 217.945 21.1776C218.33 21.8889 218.523 22.6299 218.523 23.4005C218.523 24.1711 218.33 24.9121 217.945 25.6234C217.559 26.3347 217.011 26.8831 216.3 27.2684C215.588 27.6537 214.847 27.8463 214.077 27.8463C212.832 27.8463 211.78 27.4166 210.92 26.557C210.061 25.6975 209.631 24.6453 209.631 23.4005C209.631 22.1556 210.061 21.1035 210.92 20.2439C211.78 19.3844 212.832 18.9546 214.077 18.9546Z" fill="#D0F83E"/>
</g>
</g>
<g clip-path="url(#clip9_75_3556)">
<g clip-path="url(#clip10_75_3556)">
<path d="M244.414 11.9302C244.414 11.456 244.606 11.0262 244.992 10.6409C245.377 10.2556 245.836 10.0629 246.37 10.0629H269.133C269.666 10.0629 270.126 10.2556 270.511 10.6409C270.896 11.0262 271.089 11.456 271.089 11.9302V34.8708C271.089 35.345 270.896 35.7748 270.511 36.1601C270.126 36.5454 269.666 36.738 269.133 36.738H246.37C245.836 36.738 245.377 36.5454 244.992 36.1601C244.606 35.7748 244.414 35.345 244.414 34.8708V11.9302ZM252.683 32.3811V20.3773H248.682V32.3811H252.683ZM250.638 18.6879C251.349 18.6879 251.912 18.4952 252.327 18.1099C252.742 17.7246 252.935 17.2356 252.905 16.6428C252.876 16.05 252.668 15.5461 252.283 15.1312C251.898 14.7162 251.364 14.5088 250.682 14.5088C250.001 14.5088 249.452 14.7162 249.038 15.1312C248.623 15.5461 248.415 16.05 248.415 16.6428C248.415 17.2356 248.623 17.7246 249.038 18.1099C249.452 18.4952 249.986 18.6879 250.638 18.6879ZM258.818 32.3811V25.6234C258.818 25.2085 258.878 24.8824 258.996 24.6453C259.115 24.2897 259.352 23.9636 259.708 23.6672C260.063 23.3708 260.508 23.2226 261.041 23.2226C261.753 23.2226 262.271 23.4598 262.597 23.934C262.923 24.4082 263.086 25.0899 263.086 25.9791V32.3811H267.088V25.4456C267.088 23.6672 266.658 22.3187 265.798 21.3998C264.939 20.481 263.827 20.0216 262.464 20.0216C261.516 20.0216 260.715 20.2587 260.063 20.733C259.589 21.0294 259.174 21.4739 258.818 22.0667V20.3773H254.817C254.876 20.8515 254.876 22.9855 254.817 26.7793V32.3811H258.818Z" fill="#D0F83E"/>
</g>
</g>
<defs>
<clipPath id="clip0_75_3556">
<rect width="26.6751" height="26.6751" fill="white" transform="matrix(1 0 0 -1 25.6089 37.1182)"/>
</clipPath>
<clipPath id="clip1_75_3556">
<rect width="26.6751" height="26.6751" fill="white" transform="matrix(1 0 0 -1 69.2839 37.1182)"/>
</clipPath>
<clipPath id="clip2_75_3556">
<rect width="26.6751" height="26.6751" fill="white" transform="matrix(1 0 0 -1 67.3887 36.7373)"/>
</clipPath>
<clipPath id="clip3_75_3556">
<rect width="26.6751" height="26.6751" fill="white" transform="matrix(1 0 0 -1 112.959 37.1182)"/>
</clipPath>
<clipPath id="clip4_75_3556">
<rect width="26.6751" height="26.6751" fill="white" transform="matrix(1 0 0 -1 113.064 36.7373)"/>
</clipPath>
<clipPath id="clip5_75_3556">
<rect width="27" height="28" fill="white" transform="matrix(1 0 0 -1 156.634 38.4431)"/>
</clipPath>
<clipPath id="clip6_75_3556">
<rect width="26.6751" height="26.6751" fill="white" transform="matrix(1 0 0 -1 156.698 37.7927)"/>
</clipPath>
<clipPath id="clip7_75_3556">
<rect width="26.6751" height="26.6751" fill="white" transform="matrix(1 0 0 -1 200.634 37.1182)"/>
</clipPath>
<clipPath id="clip8_75_3556">
<rect width="26.6751" height="26.6751" fill="white" transform="matrix(1 0 0 -1 200.739 36.7373)"/>
</clipPath>
<clipPath id="clip9_75_3556">
<rect width="26.6751" height="26.6751" fill="white" transform="matrix(1 0 0 -1 244.309 37.1182)"/>
</clipPath>
<clipPath id="clip10_75_3556">
<rect width="26.6751" height="26.6751" fill="white" transform="matrix(1 0 0 -1 244.414 36.7373)"/>
</clipPath>
</defs>
</svg>
